<?xml version="1.0" encoding="UTF-8" standalone="no"?>
<!-- Created with Inkscape (http://www.inkscape.org/) -->

<svg
   xmlns:ns0="http://www.iki.fi/pav/software/textext/"
   xmlns:dc="http://purl.org/dc/elements/1.1/"
   xmlns:cc="http://creativecommons.org/ns#"
   xmlns:rdf="http://www.w3.org/1999/02/22-rdf-syntax-ns#"
   xmlns:svg="http://www.w3.org/2000/svg"
   xmlns="http://www.w3.org/2000/svg"
   xmlns:sodipodi="http://sodipodi.sourceforge.net/DTD/sodipodi-0.dtd"
   xmlns:inkscape="http://www.inkscape.org/namespaces/inkscape"
   id="svg2"
   version="1.1"
   inkscape:version="0.48.0 r9654"
   width="897.19098"
   height="780.03113"
   sodipodi:docname="30 degree rotations expressed in radian measures.svg">
  <sodipodi:namedview
     pagecolor="#ffffff"
     bordercolor="#666666"
     borderopacity="1"
     objecttolerance="10"
     gridtolerance="10"
     guidetolerance="10"
     inkscape:pageopacity="0"
     inkscape:pageshadow="2"
     inkscape:window-width="1600"
     inkscape:window-height="1138"
     id="namedview4"
     showgrid="false"
     inkscape:zoom="0.97968464"
     inkscape:cx="378.11238"
     inkscape:cy="387.27593"
     inkscape:window-x="-8"
     inkscape:window-y="-8"
     inkscape:window-maximized="1"
     inkscape:current-layer="svg2"
     fit-margin-top="10"
     fit-margin-left="10"
     fit-margin-bottom="10"
     fit-margin-right="10" />
  <metadata
     id="metadata8">
    <rdf:RDF>
      <cc:Work
         rdf:about="">
        <dc:format>image/svg+xml</dc:format>
        <dc:type
           rdf:resource="http://purl.org/dc/dcmitype/StillImage" />
        <dc:title />
      </cc:Work>
    </rdf:RDF>
  </metadata>
  <defs
     id="defs6" />
  <text
     xml:space="preserve"
     style="font-size:48px;font-style:normal;font-weight:normal;text-align:center;line-height:125%;letter-spacing:0px;word-spacing:0px;text-anchor:middle;fill:#000000;fill-opacity:1;stroke:none;font-family:Sans"
     x="55.345036"
     y="576.1366"
     id="text3822"
     sodipodi:linespacing="125%"><tspan
       sodipodi:role="line"
       id="tspan3824"
       x="55.345036"
       y="576.1366" /></text>
  <path
     style="fill:none;stroke:#000080;stroke-width:2;stroke-linecap:butt;stroke-linejoin:miter;stroke-miterlimit:4;stroke-opacity:1;stroke-dasharray:none"
     d="M 442.28032,388.96786 653.24643,510.7692"
     id="path3785"
     inkscape:connector-curvature="0" />
  <path
     style="fill:none;stroke:#000080;stroke-width:2;stroke-linecap:butt;stroke-linejoin:miter;stroke-miterlimit:4;stroke-opacity:1;stroke-dasharray:none"
     d="m 442.19816,388.97297 0,243.77774"
     id="path3783"
     inkscape:connector-curvature="0" />
  <path
     style="fill:none;stroke:#000080;stroke-width:2;stroke-linecap:butt;stroke-linejoin:miter;stroke-miterlimit:4;stroke-opacity:1;stroke-dasharray:none"
     d="M 442.19816,389.15341 231.47595,510.81393"
     id="path3781"
     inkscape:connector-curvature="0" />
  <path
     style="fill:none;stroke:#000080;stroke-width:2;stroke-linecap:butt;stroke-linejoin:miter;stroke-miterlimit:4;stroke-opacity:1;stroke-dasharray:none"
     d="M 442.40791,389.22304 231.53686,267.47658"
     id="path3779"
     inkscape:connector-curvature="0" />
  <path
     style="fill:none;stroke:#000080;stroke-width:2;stroke-linecap:butt;stroke-linejoin:miter;stroke-miterlimit:4;stroke-opacity:1;stroke-dasharray:none"
     d="m 442.28032,389.09545 0,-242.77248"
     id="path3777"
     inkscape:connector-curvature="0" />
  <path
     style="fill:none;stroke:#000080;stroke-width:2;stroke-linecap:butt;stroke-linejoin:miter;stroke-miterlimit:4;stroke-opacity:1;stroke-dasharray:none"
     d="M 442.01771,388.97297 652.25218,267.59404"
     id="path3007"
     inkscape:connector-curvature="0" />
  <path
     style="fill:none;stroke:#000080;stroke-width:2;stroke-linecap:butt;stroke-linejoin:miter;stroke-miterlimit:4;stroke-opacity:1;stroke-dasharray:none"
     d="m 198.41279,389.0762 243.63707,0 243.5585,0"
     id="path3842"
     inkscape:connector-curvature="0" />
  <path
     style="fill:none;stroke:#000080;stroke-width:2;stroke-linecap:butt;stroke-linejoin:miter;stroke-miterlimit:4;stroke-opacity:1;stroke-dasharray:none"
     d="M 320.43062,178.61687 442.04986,389.26759 564.05568,600.58786"
     id="path3838"
     inkscape:connector-curvature="0" />
  <path
     style="fill:none;stroke:#000080;stroke-width:2;stroke-linecap:butt;stroke-linejoin:miter;stroke-miterlimit:4;stroke-opacity:1;stroke-dasharray:none"
     d="M 563.56426,178.62418 441.98607,389.2038 320.2151,600.11731"
     id="path3068"
     inkscape:connector-curvature="0" />
  <path
     sodipodi:type="arc"
     style="fill:none;stroke:#008000;stroke-width:2;stroke-linecap:butt;stroke-linejoin:miter;stroke-miterlimit:4;stroke-opacity:1;stroke-dasharray:none;stroke-dashoffset:0"
     id="path3757"
     sodipodi:cx="482.73563"
     sodipodi:cy="363.50574"
     sodipodi:rx="243.54884"
     sodipodi:ry="243.54884"
     d="m 726.28447,363.50574 a 243.54884,243.54884 0 1 1 -487.09769,0 243.54884,243.54884 0 1 1 487.09769,0 z"
     transform="translate(-40.7144,26.120333)" />
  <path
     sodipodi:type="arc"
     style="fill:#ff0000;fill-opacity:1;stroke:#000000;stroke-width:2;stroke-linecap:butt;stroke-linejoin:miter;stroke-miterlimit:4;stroke-opacity:1;stroke-dasharray:none;stroke-dashoffset:0"
     id="path3763"
     sodipodi:cx="482.82651"
     sodipodi:cy="363.23312"
     sodipodi:rx="4.4075074"
     sodipodi:ry="4.4075074"
     d="m 487.23401,363.23312 a 4.4075074,4.4075074 0 1 1 -8.81501,0 4.4075074,4.4075074 0 1 1 8.81501,0 z"
     transform="translate(-40.7144,26.120333)" />
  <path
     transform="translate(202.56182,26.120323)"
     sodipodi:type="arc"
     style="fill:#ff0000;fill-opacity:1;stroke:#000000;stroke-width:2;stroke-linecap:butt;stroke-linejoin:miter;stroke-miterlimit:4;stroke-opacity:1;stroke-dasharray:none;stroke-dashoffset:0"
     id="path3763-6"
     sodipodi:cx="482.82651"
     sodipodi:cy="363.23312"
     sodipodi:rx="4.4075074"
     sodipodi:ry="4.4075074"
     d="m 487.23401,363.23312 a 4.4075074,4.4075074 0 1 1 -8.81501,0 4.4075074,4.4075074 0 1 1 8.81501,0 z" />
  <path
     transform="translate(-284.26325,25.938573)"
     sodipodi:type="arc"
     style="fill:#ff0000;fill-opacity:1;stroke:#000000;stroke-width:2;stroke-linecap:butt;stroke-linejoin:miter;stroke-miterlimit:4;stroke-opacity:1;stroke-dasharray:none;stroke-dashoffset:0"
     id="path3763-3"
     sodipodi:cx="482.82651"
     sodipodi:cy="363.23312"
     sodipodi:rx="4.4075074"
     sodipodi:ry="4.4075074"
     d="m 487.23401,363.23312 a 4.4075074,4.4075074 0 1 1 -8.81501,0 4.4075074,4.4075074 0 1 1 8.81501,0 z" />
  <text
     xml:space="preserve"
     style="font-size:48px;font-style:normal;font-weight:normal;text-align:center;line-height:125%;letter-spacing:0px;word-spacing:0px;text-anchor:middle;fill:#000000;fill-opacity:1;stroke:none;font-family:Sans"
     x="136.67641"
     y="404.16632"
     id="text3808"
     sodipodi:linespacing="125%"><tspan
       sodipodi:role="line"
       id="tspan3810"
       x="136.67641"
       y="404.16632">180°</tspan></text>
  <text
     xml:space="preserve"
     style="font-size:48px;font-style:normal;font-weight:normal;text-align:center;line-height:125%;letter-spacing:0px;word-spacing:0px;text-anchor:middle;fill:#000000;fill-opacity:1;stroke:none;font-family:Sans"
     x="753.36615"
     y="380.90192"
     id="text3816"
     sodipodi:linespacing="125%"><tspan
       sodipodi:role="line"
       id="tspan3818"
       x="753.36615"
       y="380.90192">0° or</tspan><tspan
       sodipodi:role="line"
       x="753.36615"
       y="440.90192"
       id="tspan3820">360°</tspan></text>
  <path
     transform="translate(-162.88477,237.13286)"
     sodipodi:type="arc"
     style="fill:#ff0000;fill-opacity:1;stroke:#000000;stroke-width:2;stroke-linecap:butt;stroke-linejoin:miter;stroke-miterlimit:4;stroke-opacity:1;stroke-dasharray:none;stroke-dashoffset:0"
     id="path3763-3-8"
     sodipodi:cx="482.82651"
     sodipodi:cy="363.23312"
     sodipodi:rx="4.4075074"
     sodipodi:ry="4.4075074"
     d="m 487.23401,363.23312 a 4.4075074,4.4075074 0 1 1 -8.81501,0 4.4075074,4.4075074 0 1 1 8.81501,0 z" />
  <path
     transform="translate(81.073796,237.19936)"
     sodipodi:type="arc"
     style="fill:#ff0000;fill-opacity:1;stroke:#000000;stroke-width:2;stroke-linecap:butt;stroke-linejoin:miter;stroke-miterlimit:4;stroke-opacity:1;stroke-dasharray:none;stroke-dashoffset:0"
     id="path3763-3-7"
     sodipodi:cx="482.82651"
     sodipodi:cy="363.23312"
     sodipodi:rx="4.4075074"
     sodipodi:ry="4.4075074"
     d="m 487.23401,363.23312 a 4.4075074,4.4075074 0 1 1 -8.81501,0 4.4075074,4.4075074 0 1 1 8.81501,0 z" />
  <path
     transform="translate(80.754816,-184.93904)"
     sodipodi:type="arc"
     style="fill:#ff0000;fill-opacity:1;stroke:#000000;stroke-width:2;stroke-linecap:butt;stroke-linejoin:miter;stroke-miterlimit:4;stroke-opacity:1;stroke-dasharray:none;stroke-dashoffset:0"
     id="path3763-3-9"
     sodipodi:cx="482.82651"
     sodipodi:cy="363.23312"
     sodipodi:rx="4.4075074"
     sodipodi:ry="4.4075074"
     d="m 487.23401,363.23312 a 4.4075074,4.4075074 0 1 1 -8.81501,0 4.4075074,4.4075074 0 1 1 8.81501,0 z" />
  <path
     transform="translate(-162.2443,-184.74765)"
     sodipodi:type="arc"
     style="fill:#ff0000;fill-opacity:1;stroke:#000000;stroke-width:2;stroke-linecap:butt;stroke-linejoin:miter;stroke-miterlimit:4;stroke-opacity:1;stroke-dasharray:none;stroke-dashoffset:0"
     id="path3763-3-1"
     sodipodi:cx="482.82651"
     sodipodi:cy="363.23312"
     sodipodi:rx="4.4075074"
     sodipodi:ry="4.4075074"
     d="m 487.23401,363.23312 a 4.4075074,4.4075074 0 1 1 -8.81501,0 4.4075074,4.4075074 0 1 1 8.81501,0 z" />
  <text
     xml:space="preserve"
     style="font-size:48px;font-style:normal;font-weight:normal;text-align:center;line-height:125%;letter-spacing:0px;word-spacing:0px;text-anchor:middle;fill:#000000;fill-opacity:1;stroke:none;font-family:Sans"
     x="589.73767"
     y="160.04843"
     id="text3883"
     sodipodi:linespacing="125%"><tspan
       sodipodi:role="line"
       id="tspan3885"
       x="589.73767"
       y="160.04843">60°</tspan></text>
  <text
     xml:space="preserve"
     style="font-size:48px;font-style:normal;font-weight:normal;text-align:center;line-height:125%;letter-spacing:0px;word-spacing:0px;text-anchor:middle;fill:#000000;fill-opacity:1;stroke:none;font-family:Sans"
     x="289.64114"
     y="164.13135"
     id="text3887"
     sodipodi:linespacing="125%"><tspan
       sodipodi:role="line"
       id="tspan3889"
       x="289.64114"
       y="164.13135">120°</tspan></text>
  <text
     xml:space="preserve"
     style="font-size:48px;font-style:normal;font-weight:normal;text-align:center;line-height:125%;letter-spacing:0px;word-spacing:0px;text-anchor:middle;fill:#000000;fill-opacity:1;stroke:none;font-family:Sans"
     x="280.45447"
     y="654.08502"
     id="text3891"
     sodipodi:linespacing="125%"><tspan
       sodipodi:role="line"
       id="tspan3893"
       x="280.45447"
       y="654.08502">240°</tspan></text>
  <text
     xml:space="preserve"
     style="font-size:48px;font-style:normal;font-weight:normal;text-align:center;line-height:125%;letter-spacing:0px;word-spacing:0px;text-anchor:middle;fill:#000000;fill-opacity:1;stroke:none;font-family:Sans"
     x="596.88287"
     y="657.14722"
     id="text3895"
     sodipodi:linespacing="125%"><tspan
       sodipodi:role="line"
       id="tspan3897"
       x="596.88287"
       y="657.14722">300°</tspan></text>
  <path
     transform="translate(170.48932,147.44826)"
     sodipodi:type="arc"
     style="fill:#ff0000;fill-opacity:1;stroke:#000000;stroke-width:2;stroke-linecap:butt;stroke-linejoin:miter;stroke-miterlimit:4;stroke-opacity:1;stroke-dasharray:none;stroke-dashoffset:0"
     id="path3763-6-9"
     sodipodi:cx="482.82651"
     sodipodi:cy="363.23312"
     sodipodi:rx="4.4075074"
     sodipodi:ry="4.4075074"
     d="m 487.23401,363.23312 a 4.4075074,4.4075074 0 1 1 -8.81501,0 4.4075074,4.4075074 0 1 1 8.81501,0 z" />
  <path
     transform="translate(-40.83327,269.91407)"
     sodipodi:type="arc"
     style="fill:#ff0000;fill-opacity:1;stroke:#000000;stroke-width:2;stroke-linecap:butt;stroke-linejoin:miter;stroke-miterlimit:4;stroke-opacity:1;stroke-dasharray:none;stroke-dashoffset:0"
     id="path3763-6-1"
     sodipodi:cx="482.82651"
     sodipodi:cy="363.23312"
     sodipodi:rx="4.4075074"
     sodipodi:ry="4.4075074"
     d="m 487.23401,363.23312 a 4.4075074,4.4075074 0 1 1 -8.81501,0 4.4075074,4.4075074 0 1 1 8.81501,0 z" />
  <path
     transform="translate(-251.90247,147.87224)"
     sodipodi:type="arc"
     style="fill:#ff0000;fill-opacity:1;stroke:#000000;stroke-width:2;stroke-linecap:butt;stroke-linejoin:miter;stroke-miterlimit:4;stroke-opacity:1;stroke-dasharray:none;stroke-dashoffset:0"
     id="path3763-6-0"
     sodipodi:cx="482.82651"
     sodipodi:cy="363.23312"
     sodipodi:rx="4.4075074"
     sodipodi:ry="4.4075074"
     d="m 487.23401,363.23312 a 4.4075074,4.4075074 0 1 1 -8.81501,0 4.4075074,4.4075074 0 1 1 8.81501,0 z" />
  <path
     transform="translate(-251.61539,-95.79672)"
     sodipodi:type="arc"
     style="fill:#ff0000;fill-opacity:1;stroke:#000000;stroke-width:2;stroke-linecap:butt;stroke-linejoin:miter;stroke-miterlimit:4;stroke-opacity:1;stroke-dasharray:none;stroke-dashoffset:0"
     id="path3763-6-5"
     sodipodi:cx="482.82651"
     sodipodi:cy="363.23312"
     sodipodi:rx="4.4075074"
     sodipodi:ry="4.4075074"
     d="m 487.23401,363.23312 a 4.4075074,4.4075074 0 1 1 -8.81501,0 4.4075074,4.4075074 0 1 1 8.81501,0 z" />
  <path
     transform="translate(-40.58324,-217.13569)"
     sodipodi:type="arc"
     style="fill:#ff0000;fill-opacity:1;stroke:#000000;stroke-width:2;stroke-linecap:butt;stroke-linejoin:miter;stroke-miterlimit:4;stroke-opacity:1;stroke-dasharray:none;stroke-dashoffset:0"
     id="path3763-6-19"
     sodipodi:cx="482.82651"
     sodipodi:cy="363.23312"
     sodipodi:rx="4.4075074"
     sodipodi:ry="4.4075074"
     d="m 487.23401,363.23312 a 4.4075074,4.4075074 0 1 1 -8.81501,0 4.4075074,4.4075074 0 1 1 8.81501,0 z" />
  <path
     transform="translate(169.81266,-95.78815)"
     sodipodi:type="arc"
     style="fill:#ff0000;fill-opacity:1;stroke:#000000;stroke-width:2;stroke-linecap:butt;stroke-linejoin:miter;stroke-miterlimit:4;stroke-opacity:1;stroke-dasharray:none;stroke-dashoffset:0"
     id="path3763-6-01"
     sodipodi:cx="482.82651"
     sodipodi:cy="363.23312"
     sodipodi:rx="4.4075074"
     sodipodi:ry="4.4075074"
     d="m 487.23401,363.23312 a 4.4075074,4.4075074 0 1 1 -8.81501,0 4.4075074,4.4075074 0 1 1 8.81501,0 z" />
  <text
     xml:space="preserve"
     style="font-size:48px;font-style:normal;font-weight:normal;text-align:center;line-height:125%;letter-spacing:0px;word-spacing:0px;text-anchor:middle;fill:#000000;fill-opacity:1;stroke:none;font-family:Sans"
     x="701.26434"
     y="268.88544"
     id="text3963"
     sodipodi:linespacing="125%"><tspan
       sodipodi:role="line"
       id="tspan3965"
       x="701.26434"
       y="268.88544">30°</tspan></text>
  <text
     xml:space="preserve"
     style="font-size:48px;font-style:normal;font-weight:normal;text-align:center;line-height:125%;letter-spacing:0px;word-spacing:0px;text-anchor:middle;fill:#000000;fill-opacity:1;stroke:none;font-family:Sans"
     x="450.16309"
     y="134.14822"
     id="text3967"
     sodipodi:linespacing="125%"><tspan
       sodipodi:role="line"
       id="tspan3969"
       x="450.16309"
       y="134.14822">90°</tspan></text>
  <text
     xml:space="preserve"
     style="font-size:48px;font-style:normal;font-weight:normal;text-align:center;line-height:125%;letter-spacing:0px;word-spacing:0px;text-anchor:middle;fill:#000000;fill-opacity:1;stroke:none;font-family:Sans"
     x="443.01794"
     y="680.24231"
     id="text3971"
     sodipodi:linespacing="125%"><tspan
       sodipodi:role="line"
       id="tspan3973"
       x="443.01794"
       y="680.24231">270°</tspan></text>
  <text
     xml:space="preserve"
     style="font-size:48px;font-style:normal;font-weight:normal;text-align:center;line-height:125%;letter-spacing:0px;word-spacing:0px;text-anchor:middle;fill:#000000;fill-opacity:1;stroke:none;font-family:Sans"
     x="173.54347"
     y="552.65027"
     id="text3975"
     sodipodi:linespacing="125%"><tspan
       sodipodi:role="line"
       id="tspan3977"
       x="173.54347"
       y="552.65027">210°</tspan></text>
  <text
     xml:space="preserve"
     style="font-size:48px;font-style:normal;font-weight:normal;text-align:center;line-height:125%;letter-spacing:0px;word-spacing:0px;text-anchor:middle;fill:#000000;fill-opacity:1;stroke:none;font-family:Sans"
     x="179.66788"
     y="273.98911"
     id="text3979"
     sodipodi:linespacing="125%"><tspan
       sodipodi:role="line"
       id="tspan3981"
       x="179.66788"
       y="273.98911">150°</tspan></text>
  <text
     xml:space="preserve"
     style="font-size:48px;font-style:normal;font-weight:normal;text-align:center;line-height:125%;letter-spacing:0px;word-spacing:0px;text-anchor:middle;fill:#000000;fill-opacity:1;stroke:none;font-family:Sans"
     x="716.57544"
     y="554.69171"
     id="text3983"
     sodipodi:linespacing="125%"><tspan
       sodipodi:role="line"
       id="tspan3985"
       x="716.57544"
       y="554.69171">330°</tspan></text>
  <path
     id="path3086"
     d="m 749.7043,162.2676 0,-0.06 0,-0.06 0,-0.06 0,0 0,-0.06 0,-0.06 0,-0.06 0,0 0,-0.06 0,-0.06 0,0 0,-0.06 0,0 0,-0.06 0,0 0,-0.06 -0.06,0 0,-0.06 0,-0.06 0,-0.06 0,0 -0.06,-0.06 0,-0.06 -0.06,0 0,-0.06 -0.06,0 0,-0.06 -0.06,0 -0.06,0 0,-0.06 -0.06,0 -0.06,0 -0.06,0 0,0 -0.06,0 0,0 -0.06,0 -0.06,0 0,0 -0.06,0 -0.06,0 0,0 -0.06,0 -0.06,0 -0.06,0 0,0 -0.06,0 -0.06,0 -0.06,0 -0.06,0 c -2.64,2.58 -6.48,2.64 -8.16,2.64 v 1.5 c 0.96,0 3.72,0 6.06,-1.14 v 21.24 c 0,1.38 0,1.92 -4.2,1.92 h -1.56 v 1.5 c 0.72,0 5.88,-0.18 7.44,-0.18 1.26,0 6.54,0.18 7.44,0.18 v -1.5 h -1.56 c -4.2,0 -4.2,-0.54 -4.2,-1.92 z"
     inkscape:connector-curvature="0"
     style="font-style:normal;font-variant:normal;font-weight:normal;font-stretch:normal;letter-spacing:normal;word-spacing:normal;text-anchor:start;fill:#800000;stroke:#000000;stroke-width:0;stroke-linecap:butt;stroke-linejoin:miter;stroke-miterlimit:10.43299961000000000;stroke-opacity:1;stroke-dasharray:none;stroke-dashoffset:0" />
  <path
     id="path3088"
     d="m 772.5043,173.6676 h 4.98 c -0.6,2.46 -1.5,6.3 -1.5,9.6 0,1.62 0.18,2.76 0.42,3.72 0.66,2.04 1.26,2.22 1.92,2.22 0.96,0 1.92,-0.84 1.92,-1.86 0,-0.36 -0.06,-0.54 -0.3,-0.9 -0.78,-1.56 -1.56,-3.96 -1.56,-7.38 0,-0.78 0,-2.46 0.6,-5.4 h 5.22 c 0.72,0 1.08,0 1.56,-0.36 0.54,-0.42 0.66,-1.08 0.66,-1.26 0,-1.2 -1.08,-1.2 -1.74,-1.2 h -15.78 c -1.74,0 -2.88,0.36 -4.74,2.1 -1.14,0.96 -2.76,3.18 -2.76,3.6 0,0.48 0.54,0.48 0.72,0.48 0.48,0 0.48,-0.06 0.78,-0.48 2.1,-2.88 4.68,-2.88 5.64,-2.88 h 2.52 c -1.32,4.56 -3.54,9.48 -4.8,12 -0.24,0.54 -0.66,1.44 -0.78,1.62 -0.06,0.12 -0.12,0.3 -0.12,0.6 0,0.66 0.48,1.32 1.44,1.32 1.68,0 2.16,-1.86 3.12,-5.64 z"
     inkscape:connector-curvature="0"
     style="font-style:normal;font-variant:normal;font-weight:normal;font-stretch:normal;letter-spacing:normal;word-spacing:normal;text-anchor:start;fill:#000000;stroke:#000000;stroke-width:0;stroke-linecap:butt;stroke-linejoin:miter;stroke-miterlimit:10.43299961;stroke-opacity:1;stroke-dasharray:none;stroke-dashoffset:0" />
  <line
     id="line3090"
     y2="197.36763"
     x2="789.00427"
     y1="197.36763"
     x1="735.7243"
     style="font-style:normal;font-variant:normal;font-weight:normal;font-stretch:normal;letter-spacing:normal;word-spacing:normal;text-anchor:start;fill:none;stroke:#000000;stroke-width:2.38800001;stroke-linecap:butt;stroke-linejoin:miter;stroke-miterlimit:10.43299961;stroke-opacity:1;stroke-dasharray:none;stroke-dashoffset:0" />
  <path
     id="path3092"
     d="m 756.7243,219.3276 0,-0.66 0,-0.66 0,-0.6 0.06,-0.6 0.06,-0.6 0.06,-0.6 0.06,-0.6 0.06,-0.54 0.12,-0.6 0.12,-0.54 0.18,-0.54 0.18,-0.54 0.12,-0.24 0.06,-0.24 0.12,-0.3 0.12,-0.24 0.12,-0.24 0.12,-0.24 0.18,-0.24 0.12,-0.24 c 1.44,-2.28 3.66,-3.78 6.36,-3.78 1.26,0 2.94,0.3 3.78,1.44 -1.08,0.06 -1.98,0.78 -1.98,1.98 0,1.08 0.72,1.98 1.98,1.98 1.26,0 2.04,-0.84 2.04,-2.04 0,-2.46 -1.8,-4.62 -5.88,-4.62 -6.06,0 -12.18,5.52 -12.18,14.52 0,10.8 5.1,14.04 9.66,14.04 5.1,0 9.54,-3.9 9.54,-9.36 0,-5.28 -4.2,-9.24 -9.12,-9.24 l -0.18,1.2 c 1.92,0 3.24,0.72 4.26,2.28 1.02,1.62 1.02,3.36 1.02,5.76 0,2.4 0,4.14 -1.14,5.76 -0.96,1.44 -2.34,2.28 -4.38,2.28 h 0 c -2.04,0 -3.72,-1.2 -4.56,-3.06 -0.66,-1.26 -0.96,-3.36 -0.96,-5.82 0,-4.08 2.4,-7.2 5.76,-7.2 l 0.18,-1.2 c -3.3,0 -5.16,2.22 -6.06,4.14 z"
     inkscape:connector-curvature="0"
     style="font-style:normal;font-variant:normal;font-weight:normal;font-stretch:normal;letter-spacing:normal;word-spacing:normal;text-anchor:start;fill:#000000;stroke:#000000;stroke-width:0;stroke-linecap:butt;stroke-linejoin:miter;stroke-miterlimit:10.43299961;stroke-opacity:1;stroke-dasharray:none;stroke-dashoffset:0" />
  <path
     style="font-style:normal;font-variant:normal;font-weight:normal;font-stretch:normal;letter-spacing:normal;word-spacing:normal;text-anchor:start;fill:#800000;stroke:#000000;stroke-width:0;stroke-linecap:butt;stroke-linejoin:miter;stroke-miterlimit:10.43299961000000000;stroke-opacity:1;stroke-dasharray:none;stroke-dashoffset:0"
     inkscape:connector-curvature="0"
     d="m 604.75454,55.677 h -1.44 c -0.12,0.9 -0.54,3.36 -1.08,3.78 -0.36,0.24 -3.6,0.24 -4.14,0.24 h -7.68 c 4.38,-3.9 5.82,-5.04 8.34,-7.02 3.06,-2.46 6,-5.04 6,-9 0,-5.04 -4.44,-8.1 -9.84,-8.1 -5.16,0 -8.64,3.6 -8.64,7.44 0,2.1 1.8,2.34 2.22,2.34 0.96,0 2.16,-0.72 2.16,-2.22 0,-0.78 -0.24,-2.22 -2.46,-2.22 1.32,-2.94 4.14,-3.84 6.12,-3.84 4.2,0 6.36,3.24 6.36,6.6 0,3.66 -2.58,6.54 -3.9,8.04 l -10.08,9.9 c -0.42,0.36 -0.42,0.48 -0.42,1.62 h 17.22 z"
     id="path3212" />
  <path
     style="font-style:normal;font-variant:normal;font-weight:normal;font-stretch:normal;letter-spacing:normal;word-spacing:normal;text-anchor:start;fill:#000000;stroke:#000000;stroke-width:0;stroke-linecap:butt;stroke-linejoin:miter;stroke-miterlimit:10.43299961;stroke-opacity:1;stroke-dasharray:none;stroke-dashoffset:0"
     inkscape:connector-curvature="0"
     d="m 620.41454,48.117 h 4.98 c -0.6,2.46 -1.5,6.3 -1.5,9.6 0,1.62 0.18,2.76 0.42,3.72 0.66,2.04 1.26,2.22 1.92,2.22 0.96,0 1.92,-0.84 1.92,-1.86 0,-0.36 -0.06,-0.54 -0.3,-0.9 -0.78,-1.56 -1.56,-3.96 -1.56,-7.38 0,-0.78 0,-2.46 0.6,-5.4 h 5.22 c 0.72,0 1.08,0 1.56,-0.36 0.54,-0.42 0.66,-1.08 0.66,-1.26 0,-1.2 -1.08,-1.2 -1.74,-1.2 h -15.78 c -1.74,0 -2.88,0.36 -4.74,2.1 -1.14,0.96 -2.76,3.18 -2.76,3.6 0,0.48 0.54,0.48 0.72,0.48 0.48,0 0.48,-0.06 0.78,-0.48 2.1,-2.88 4.68,-2.88 5.64,-2.88 h 2.52 c -1.32,4.56 -3.54,9.48 -4.8,12 -0.24,0.54 -0.66,1.44 -0.78,1.62 -0.06,0.12 -0.12,0.3 -0.12,0.6 0,0.66 0.48,1.32 1.44,1.32 1.68,0 2.16,-1.86 3.12,-5.64 z"
     id="path3214" />
  <line
     style="font-style:normal;font-variant:normal;font-weight:normal;font-stretch:normal;letter-spacing:normal;word-spacing:normal;text-anchor:start;fill:none;stroke:#000000;stroke-width:2.38800001;stroke-linecap:butt;stroke-linejoin:miter;stroke-miterlimit:10.43299961;stroke-opacity:1;stroke-dasharray:none;stroke-dashoffset:0"
     x1="583.63458"
     y1="71.817032"
     x2="636.91449"
     y2="71.817032"
     id="line3216" />
  <path
     style="font-style:normal;font-variant:normal;font-weight:normal;font-stretch:normal;letter-spacing:normal;word-spacing:normal;text-anchor:start;fill:#000000;stroke:#000000;stroke-width:0;stroke-linecap:butt;stroke-linejoin:miter;stroke-miterlimit:10.43299961;stroke-opacity:1;stroke-dasharray:none;stroke-dashoffset:0"
     inkscape:connector-curvature="0"
     d="m 604.63454,93.777 0,-0.66 0,-0.66 0,-0.6 0.06,-0.6 0.06,-0.6 0.06,-0.6 0.06,-0.6 0.06,-0.54 0.12,-0.6 0.12,-0.54 0.18,-0.54 0.18,-0.54 0.12,-0.24 0.06,-0.24 0.12,-0.3 0.12,-0.24 0.12,-0.24 0.12,-0.24 0.18,-0.24 0.12,-0.24 c 1.44,-2.28 3.66,-3.78 6.36,-3.78 1.26,0 2.94,0.3 3.78,1.44 -1.08,0.06 -1.98,0.78 -1.98,1.98 0,1.08 0.72,1.98 1.98,1.98 1.26,0 2.04,-0.84 2.04,-2.04 0,-2.46 -1.8,-4.62 -5.88,-4.62 -6.06,0 -12.18,5.52 -12.18,14.52 0,10.8 5.1,14.04 9.66,14.04 5.1,0 9.54,-3.9 9.54,-9.36 0,-5.28 -4.2,-9.24 -9.12,-9.24 l -0.18,1.2 c 1.92,0 3.24,0.72 4.26,2.28 1.02,1.62 1.02,3.36 1.02,5.76 0,2.4 0,4.14 -1.14,5.76 -0.96,1.44 -2.34,2.28 -4.38,2.28 h 0 c -2.04,0 -3.72,-1.2 -4.56,-3.06 -0.66,-1.26 -0.96,-3.36 -0.96,-5.82 0,-4.08 2.4,-7.2 5.76,-7.2 l 0.18,-1.2 c -3.3,0 -5.16,2.22 -6.06,4.14 z"
     id="path3218" />
  <text
     xml:space="preserve"
     style="font-size:36px;font-style:normal;font-weight:normal;text-align:center;line-height:125%;letter-spacing:0px;word-spacing:0px;text-anchor:middle;fill:#000000;fill-opacity:1;stroke:none;font-family:Sans"
     x="661.43738"
     y="82.868011"
     id="text3282"
     sodipodi:linespacing="125%"><tspan
       sodipodi:role="line"
       id="tspan3284"
       x="661.43738"
       y="82.868011">or</tspan></text>
  <g
     style="font-style:normal;font-variant:normal;font-weight:normal;font-stretch:normal;letter-spacing:normal;word-spacing:normal;text-anchor:start;fill:none;stroke:#000000;stroke-linecap:butt;stroke-linejoin:miter;stroke-miterlimit:10.43299961;stroke-opacity:1;stroke-dasharray:none;stroke-dashoffset:0"
     id="g3352"
     transform="matrix(6,0,0,-6,-652.88516,4329.537)"
     xml:space="preserve"
     stroke-miterlimit="10.433"
     font-style="normal"
     font-variant="normal"
     font-weight="normal"
     font-stretch="normal"
     font-size-adjust="none"
     letter-spacing="normal"
     word-spacing="normal"
     ns0:text="$\\frac{\\pi}{3}$"
     ns0:preamble="">
<path
   style="fill:#000000;stroke-width:0"
   inkscape:connector-curvature="0"
   d="m 226.79,713.57 h 0.83 c -0.1,-0.41 -0.25,-1.05 -0.25,-1.6 0,-0.27 0.03,-0.46 0.07,-0.62 0.11,-0.34 0.2,-0.37 0.32,-0.37 0.15,0 0.32,0.14 0.32,0.31 0,0.06 -0.01,0.09 -0.05,0.15 -0.14,0.26 -0.26,0.66 -0.26,1.23 0,0.13 0,0.41 0.1,0.9 h 0.87 c 0.12,0 0.18,0 0.25,0.06 0.1,0.07 0.12,0.18 0.12,0.21 0,0.2 -0.18,0.2 -0.3,0.2 h -2.62 c -0.29,0 -0.48,-0.06 -0.8,-0.35 -0.18,-0.16 -0.45,-0.53 -0.45,-0.6 0,-0.08 0.09,-0.08 0.12,-0.08 0.08,0 0.08,0.01 0.12,0.08 0.36,0.48 0.79,0.48 0.95,0.48 h 0.42 c -0.22,-0.76 -0.59,-1.58 -0.8,-2 -0.04,-0.09 -0.11,-0.24 -0.13,-0.27 -0.01,-0.02 -0.02,-0.05 -0.02,-0.1 0,-0.11 0.08,-0.22 0.24,-0.22 0.28,0 0.36,0.31 0.52,0.94 z"
   id="path3354" />
<line
   style="stroke-width:0.398"
   x1="224.63"
   y1="709.62"
   x2="229.53999"
   y2="709.62"
   id="line3356" />
<path
   style="fill:#000000;stroke-width:0"
   inkscape:connector-curvature="0"
   d="m 227,706.01 0.05,0 0.05,0 0.05,-0.01 0.04,-0.01 0.05,-0.01 0.05,-0.01 0.04,-0.01 0.04,-0.02 0.05,-0.02 0.04,-0.02 0.03,-0.02 0.04,-0.03 0.04,-0.02 0.03,-0.03 0.04,-0.03 0.03,-0.04 0.03,-0.03 0.03,-0.04 0.02,-0.04 0.03,-0.05 0.02,-0.04 0.02,-0.05 0.02,-0.05 0.02,-0.05 0.02,-0.05 0.01,-0.06 0.01,-0.06 0.01,-0.06 0.01,-0.06 0.01,-0.06 0,-0.07 0,-0.07 c 0,-0.86 -0.5,-1.12 -0.9,-1.12 -0.28,0 -0.9,0.08 -1.19,0.49 0.33,0.01 0.41,0.24 0.41,0.39 0,0.22 -0.17,0.38 -0.39,0.38 -0.19,0 -0.39,-0.12 -0.39,-0.4 0,-0.66 0.73,-1.08 1.57,-1.08 0.97,0 1.64,0.65 1.64,1.34 0,0.54 -0.45,1.09 -1.22,1.25 0.74,0.26 1,0.78 1,1.21 0,0.55 -0.63,0.96 -1.41,0.96 -0.77,0 -1.36,-0.38 -1.36,-0.93 0,-0.24 0.15,-0.37 0.36,-0.37 0.22,0 0.36,0.16 0.36,0.35 0,0.2 -0.14,0.35 -0.36,0.36 0.24,0.31 0.72,0.38 0.98,0.38 0.32,0 0.76,-0.15 0.76,-0.75 0,-0.3 -0.1,-0.61 -0.28,-0.83 -0.23,-0.26 -0.43,-0.28 -0.78,-0.3 -0.17,-0.01 -0.18,-0.01 -0.22,-0.02 -0.01,0 -0.07,-0.01 -0.07,-0.09 0,-0.1 0.06,-0.1 0.18,-0.1 z"
   id="path3358" />
</g>  <path
     style="font-style:normal;font-variant:normal;font-weight:normal;font-stretch:normal;letter-spacing:normal;word-spacing:normal;text-anchor:start;fill:#800000;stroke:#000000;stroke-width:0;stroke-linecap:butt;stroke-linejoin:miter;stroke-miterlimit:10.43299961000000000;stroke-opacity:1;stroke-dasharray:none;stroke-dashoffset:0"
     inkscape:connector-curvature="0"
     d="m 829.32175,306.1914 0,-0.06 0,-0.06 0,-0.06 0,0 0,-0.06 0,-0.06 0,-0.06 0,0 0,-0.06 0,-0.06 0,0 0,-0.06 0,0 0,-0.06 0,0 0,-0.06 -0.06,0 0,-0.06 0,-0.06 0,-0.06 0,0 -0.06,-0.06 0,-0.06 -0.06,0 0,-0.06 -0.06,0 0,-0.06 -0.06,0 -0.06,0 0,-0.06 -0.06,0 -0.06,0 -0.06,0 0,0 -0.06,0 0,0 -0.06,0 -0.06,0 0,0 -0.06,0 -0.06,0 0,0 -0.06,0 -0.06,0 -0.06,0 0,0 -0.06,0 -0.06,0 -0.06,0 -0.06,0 c -2.64,2.58 -6.48,2.64 -8.16,2.64 v 1.5 c 0.96,0 3.72,0 6.06,-1.14 v 21.24 c 0,1.38 0,1.92 -4.2,1.92 h -1.56 v 1.5 c 0.72,0 5.88,-0.18 7.44,-0.18 1.26,0 6.54,0.18 7.44,0.18 v -1.5 h -1.56 c -4.2,0 -4.2,-0.54 -4.2,-1.92 z"
     id="path3500" />
  <path
     style="font-style:normal;font-variant:normal;font-weight:normal;font-stretch:normal;letter-spacing:normal;word-spacing:normal;text-anchor:start;fill:#800000;stroke:#000000;stroke-width:0;stroke-linecap:butt;stroke-linejoin:miter;stroke-miterlimit:10.43299961000000000;stroke-opacity:1;stroke-dasharray:none;stroke-dashoffset:0"
     inkscape:connector-curvature="0"
     d="m 860.28175,325.1514 h -1.44 c -0.12,0.9 -0.54,3.36 -1.08,3.78 -0.36,0.24 -3.54,0.24 -4.14,0.24 h -7.68 c 4.38,-3.9 5.82,-5.04 8.34,-7.02 3.12,-2.46 6,-5.04 6,-9 0,-5.04 -4.44,-8.1 -9.78,-8.1 -5.22,0 -8.7,3.6 -8.7,7.44 0,2.1 1.8,2.34 2.22,2.34 0.96,0 2.22,-0.72 2.22,-2.22 0,-0.78 -0.3,-2.22 -2.46,-2.22 1.26,-2.94 4.08,-3.84 6.06,-3.84 4.2,0 6.36,3.24 6.36,6.6 0,3.66 -2.58,6.54 -3.9,8.04 l -10.08,9.9 c -0.42,0.36 -0.42,0.48 -0.42,1.62 h 17.22 z"
     id="path3502" />
  <path
     style="font-style:normal;font-variant:normal;font-weight:normal;font-stretch:normal;letter-spacing:normal;word-spacing:normal;text-anchor:start;fill:#000000;stroke:#000000;stroke-width:0;stroke-linecap:butt;stroke-linejoin:miter;stroke-miterlimit:10.43299961;stroke-opacity:1;stroke-dasharray:none;stroke-dashoffset:0"
     inkscape:connector-curvature="0"
     d="m 876.00175,317.5914 h 4.98 c -0.66,2.46 -1.56,6.3 -1.56,9.6 0,1.62 0.18,2.76 0.42,3.72 0.66,2.04 1.26,2.22 1.92,2.22 0.96,0 1.92,-0.84 1.92,-1.86 0,-0.36 -0.06,-0.54 -0.3,-0.9 -0.78,-1.56 -1.56,-3.96 -1.56,-7.38 0,-0.78 0,-2.46 0.6,-5.4 h 5.22 c 0.72,0 1.08,0 1.56,-0.36 0.54,-0.42 0.66,-1.08 0.66,-1.26 0,-1.2 -1.08,-1.2 -1.74,-1.2 h -15.78 c -1.68,0 -2.88,0.36 -4.74,2.1 -1.14,0.96 -2.76,3.18 -2.76,3.6 0,0.48 0.54,0.48 0.72,0.48 0.48,0 0.54,-0.06 0.78,-0.48 2.1,-2.88 4.68,-2.88 5.64,-2.88 h 2.52 c -1.26,4.56 -3.54,9.48 -4.8,12 -0.24,0.54 -0.66,1.44 -0.78,1.62 -0.06,0.12 -0.12,0.3 -0.12,0.6 0,0.66 0.48,1.32 1.44,1.32 1.68,0 2.16,-1.86 3.12,-5.64 z"
     id="path3504" />
  <line
     style="font-style:normal;font-variant:normal;font-weight:normal;font-stretch:normal;letter-spacing:normal;word-spacing:normal;text-anchor:start;fill:none;stroke:#000000;stroke-width:2.38800001;stroke-linecap:butt;stroke-linejoin:miter;stroke-miterlimit:10.43299961;stroke-opacity:1;stroke-dasharray:none;stroke-dashoffset:0"
     x1="815.3418"
     y1="341.29144"
     x2="892.44171"
     y2="341.29144"
     id="line3506" />
  <path
     style="font-style:normal;font-variant:normal;font-weight:normal;font-stretch:normal;letter-spacing:normal;word-spacing:normal;text-anchor:start;fill:#000000;stroke:#000000;stroke-width:0;stroke-linecap:butt;stroke-linejoin:miter;stroke-miterlimit:10.43299961;stroke-opacity:1;stroke-dasharray:none;stroke-dashoffset:0"
     inkscape:connector-curvature="0"
     d="m 848.22175,363.2514 0,-0.66 0.06,-0.66 0,-0.6 0,-0.6 0.06,-0.6 0.06,-0.6 0.06,-0.6 0.12,-0.54 0.12,-0.6 0.12,-0.54 0.18,-0.54 0.18,-0.54 0.06,-0.24 0.12,-0.24 0.12,-0.3 0.12,-0.24 0.12,-0.24 0.12,-0.24 0.12,-0.24 0.18,-0.24 c 1.38,-2.28 3.66,-3.78 6.36,-3.78 1.2,0 2.88,0.3 3.72,1.44 -1.02,0.06 -1.92,0.78 -1.92,1.98 0,1.08 0.72,1.98 1.98,1.98 1.26,0 1.98,-0.84 1.98,-2.04 0,-2.46 -1.74,-4.62 -5.88,-4.62 -6,0 -12.18,5.52 -12.18,14.52 0,10.8 5.1,14.04 9.72,14.04 5.1,0 9.54,-3.9 9.54,-9.36 0,-5.28 -4.26,-9.24 -9.12,-9.24 l -0.18,1.2 c 1.86,0 3.18,0.72 4.2,2.28 1.02,1.62 1.08,3.36 1.08,5.76 0,2.4 0,4.14 -1.14,5.76 -1.02,1.44 -2.34,2.28 -4.38,2.28 h 0 c -2.1,0 -3.72,-1.2 -4.62,-3.06 -0.6,-1.26 -0.96,-3.36 -0.96,-5.82 0,-4.08 2.46,-7.2 5.82,-7.2 l 0.18,-1.2 c -3.36,0 -5.16,2.22 -6.12,4.14 z"
     id="path3508" />
  <text
     xml:space="preserve"
     style="font-size:36px;font-style:normal;font-weight:normal;text-align:center;line-height:125%;letter-spacing:0px;word-spacing:0px;text-anchor:middle;fill:#000000;fill-opacity:1;stroke:none;font-family:Sans"
     x="856.59259"
     y="409.65109"
     id="text3282-4"
     sodipodi:linespacing="125%"><tspan
       sodipodi:role="line"
       id="tspan3284-7"
       x="856.59259"
       y="409.65109">or</tspan></text>
  <g
     style="font-style:normal;font-variant:normal;font-weight:normal;font-stretch:normal;letter-spacing:normal;word-spacing:normal;text-anchor:start;fill:none;stroke:#000000;stroke-linecap:butt;stroke-linejoin:miter;stroke-miterlimit:10.43299961;stroke-opacity:1;stroke-dasharray:none;stroke-dashoffset:0"
     id="g3683"
     transform="matrix(6,0,0,-6,-515.08572,4699.0436)"
     xml:space="preserve"
     stroke-miterlimit="10.433"
     font-style="normal"
     font-variant="normal"
     font-weight="normal"
     font-stretch="normal"
     font-size-adjust="none"
     letter-spacing="normal"
     word-spacing="normal"
     ns0:text="$2\\pi$"
     ns0:preamble="">
<path
   style="fill:#000000;stroke-width:0"
   inkscape:connector-curvature="0"
   d="m 224.7,707.89 1.06,1.03 c 1.55,1.37 2.15,1.91 2.15,2.9 0,1.14 -0.9,1.93 -2.12,1.93 -1.12,0 -1.86,-0.91 -1.86,-1.8 0,-0.55 0.5,-0.55 0.53,-0.55 0.17,0 0.52,0.11 0.52,0.52 0,0.26 -0.18,0.52 -0.53,0.52 -0.08,0 -0.1,0 -0.13,-0.01 0.23,0.65 0.77,1.02 1.34,1.02 0.91,0 1.34,-0.81 1.34,-1.63 0,-0.79 -0.5,-1.58 -1.05,-2.2 l -1.91,-2.13 c -0.11,-0.11 -0.11,-0.13 -0.11,-0.36 h 3.7 l 0.28,1.73 h -0.25 c -0.05,-0.3 -0.12,-0.74 -0.22,-0.89 -0.07,-0.08 -0.73,-0.08 -0.95,-0.08 z"
   id="path3685" />
<path
   style="fill:#000000;stroke-width:0"
   inkscape:connector-curvature="0"
   d="m 231.05,710.84 h 1.13 c -0.33,-1.48 -0.42,-1.9 -0.42,-2.57 0,-0.15 0,-0.42 0.08,-0.76 0.1,-0.43 0.21,-0.49 0.36,-0.49 0.2,0 0.41,0.18 0.41,0.37 0,0.06 0,0.08 -0.06,0.22 -0.29,0.72 -0.29,1.37 -0.29,1.65 0,0.52 0.07,1.06 0.18,1.58 h 1.14 c 0.13,0 0.49,0 0.49,0.34 0,0.23 -0.21,0.23 -0.4,0.23 h -3.34 c -0.22,0 -0.6,0 -1.04,-0.46 -0.35,-0.39 -0.61,-0.85 -0.61,-0.9 0,-0.01 0,-0.1 0.12,-0.1 0.08,0 0.1,0.04 0.16,0.12 0.49,0.77 1.07,0.77 1.27,0.77 h 0.56 c -0.31,-1.21 -0.85,-2.41 -1.27,-3.32 -0.08,-0.15 -0.08,-0.17 -0.08,-0.24 0,-0.19 0.16,-0.26 0.29,-0.26 0.3,0 0.38,0.27 0.5,0.64 0.14,0.46 0.14,0.48 0.27,0.98 z"
   id="path3687" />
</g>  <path
     style="font-style:normal;font-variant:normal;font-weight:normal;font-stretch:normal;letter-spacing:normal;word-spacing:normal;text-anchor:start;fill:#800000;stroke:#000000;stroke-width:0;stroke-linecap:butt;stroke-linejoin:miter;stroke-miterlimit:10.43299961000000000;stroke-opacity:1;stroke-dasharray:none;stroke-dashoffset:0"
     inkscape:connector-curvature="0"
     d="m 772.16051,554.2305 0,-0.06 0,-0.06 0,-0.06 0,0 0,-0.06 0,-0.06 0,-0.06 0,0 0,-0.06 0,-0.06 0,0 0,-0.06 0,0 0,-0.06 0,0 0,-0.06 -0.06,0 0,-0.06 0,-0.06 0,-0.06 0,0 -0.06,-0.06 0,-0.06 -0.06,0 0,-0.06 -0.06,0 0,-0.06 -0.06,0 -0.06,0 0,-0.06 -0.06,0 -0.06,0 -0.06,0 0,0 -0.06,0 0,0 -0.06,0 -0.06,0 0,0 -0.06,0 -0.06,0 0,0 -0.06,0 -0.06,0 -0.06,0 0,0 -0.06,0 -0.06,0 -0.06,0 -0.06,0 c -2.64,2.58 -6.48,2.64 -8.16,2.64 v 1.5 c 0.96,0 3.72,0 6.06,-1.14 v 21.24 c 0,1.38 0,1.92 -4.2,1.92 h -1.56 v 1.5 c 0.72,0 5.88,-0.18 7.44,-0.18 1.26,0 6.54,0.18 7.44,0.18 v -1.5 h -1.56 c -4.2,0 -4.2,-0.54 -4.2,-1.92 z"
     id="path3851" />
  <path
     style="font-style:normal;font-variant:normal;font-weight:normal;font-stretch:normal;letter-spacing:normal;word-spacing:normal;text-anchor:start;fill:#800000;stroke:#000000;stroke-width:0;stroke-linecap:butt;stroke-linejoin:miter;stroke-miterlimit:10.43299961000000000;stroke-opacity:1;stroke-dasharray:none;stroke-dashoffset:0"
     inkscape:connector-curvature="0"
     d="m 795.98051,554.2305 0,-0.06 0,-0.06 0,-0.06 0,0 0,-0.06 0,-0.06 0,-0.06 0,0 0,-0.06 0,-0.06 0,0 0,-0.06 0,0 0,-0.06 0,0 0,-0.06 0,0 0,-0.06 -0.06,-0.06 0,-0.06 0,0 -0.06,-0.06 0,-0.06 0,0 -0.06,-0.06 0,0 -0.06,-0.06 -0.06,0 0,0 -0.06,-0.06 -0.06,0 -0.06,0 -0.06,0 0,0 -0.06,0 0,0 -0.06,0 0,0 -0.06,0 -0.06,0 0,0 -0.06,0 -0.06,0 -0.06,0 0,0 -0.06,0 -0.06,0 -0.06,0 -0.06,0 -0.06,0 c -2.64,2.58 -6.48,2.64 -8.16,2.64 v 1.5 c 1.02,0 3.78,0 6.06,-1.14 v 21.24 c 0,1.38 0,1.92 -4.2,1.92 h -1.56 v 1.5 c 0.72,0 5.88,-0.18 7.44,-0.18 1.26,0 6.54,0.18 7.44,0.18 v -1.5 h -1.56 c -4.2,0 -4.2,-0.54 -4.2,-1.92 z"
     id="path3853" />
  <path
     style="font-style:normal;font-variant:normal;font-weight:normal;font-stretch:normal;letter-spacing:normal;word-spacing:normal;text-anchor:start;fill:#000000;stroke:#000000;stroke-width:0;stroke-linecap:butt;stroke-linejoin:miter;stroke-miterlimit:10.43299961;stroke-opacity:1;stroke-dasharray:none;stroke-dashoffset:0"
     inkscape:connector-curvature="0"
     d="m 818.84051,565.6305 h 4.98 c -0.66,2.46 -1.56,6.3 -1.56,9.6 0,1.62 0.18,2.76 0.42,3.72 0.66,2.04 1.26,2.22 1.92,2.22 0.96,0 1.92,-0.84 1.92,-1.86 0,-0.36 -0.06,-0.54 -0.3,-0.9 -0.78,-1.56 -1.56,-3.96 -1.56,-7.38 0,-0.78 0,-2.46 0.6,-5.4 h 5.22 c 0.72,0 1.08,0 1.56,-0.36 0.54,-0.42 0.66,-1.08 0.66,-1.26 0,-1.2 -1.08,-1.2 -1.74,-1.2 h -15.78 c -1.68,0 -2.88,0.36 -4.74,2.1 -1.14,0.96 -2.76,3.18 -2.76,3.6 0,0.48 0.54,0.48 0.72,0.48 0.48,0 0.54,-0.06 0.78,-0.48 2.1,-2.88 4.68,-2.88 5.64,-2.88 h 2.52 c -1.26,4.56 -3.54,9.48 -4.8,12 -0.24,0.54 -0.66,1.44 -0.78,1.62 -0.06,0.12 -0.12,0.3 -0.12,0.6 0,0.66 0.48,1.32 1.44,1.32 1.68,0 2.16,-1.86 3.12,-5.64 z"
     id="path3855" />
  <line
     style="font-style:normal;font-variant:normal;font-weight:normal;font-stretch:normal;letter-spacing:normal;word-spacing:normal;text-anchor:start;fill:none;stroke:#000000;stroke-width:2.38800001;stroke-linecap:butt;stroke-linejoin:miter;stroke-miterlimit:10.43299961;stroke-opacity:1;stroke-dasharray:none;stroke-dashoffset:0"
     x1="758.18054"
     y1="589.33051"
     x2="835.28046"
     y2="589.33051"
     id="line3857" />
  <path
     style="font-style:normal;font-variant:normal;font-weight:normal;font-stretch:normal;letter-spacing:normal;word-spacing:normal;text-anchor:start;fill:#000000;stroke:#000000;stroke-width:0;stroke-linecap:butt;stroke-linejoin:miter;stroke-miterlimit:10.43299961;stroke-opacity:1;stroke-dasharray:none;stroke-dashoffset:0"
     inkscape:connector-curvature="0"
     d="m 791.06051,611.2905 0,-0.66 0.06,-0.66 0,-0.6 0,-0.6 0.06,-0.6 0.06,-0.6 0.06,-0.6 0.12,-0.54 0.12,-0.6 0.12,-0.54 0.18,-0.54 0.18,-0.54 0.06,-0.24 0.12,-0.24 0.12,-0.3 0.12,-0.24 0.12,-0.24 0.12,-0.24 0.12,-0.24 0.18,-0.24 c 1.38,-2.28 3.66,-3.78 6.36,-3.78 1.2,0 2.88,0.3 3.72,1.44 -1.02,0.06 -1.92,0.78 -1.92,1.98 0,1.08 0.72,1.98 1.98,1.98 1.26,0 1.98,-0.84 1.98,-2.04 0,-2.46 -1.74,-4.62 -5.88,-4.62 -6,0 -12.18,5.52 -12.18,14.52 0,10.8 5.1,14.04 9.72,14.04 5.1,0 9.54,-3.9 9.54,-9.36 0,-5.28 -4.26,-9.24 -9.12,-9.24 l -0.18,1.2 c 1.86,0 3.18,0.72 4.2,2.28 1.02,1.62 1.08,3.36 1.08,5.76 0,2.4 0,4.14 -1.14,5.76 -1.02,1.44 -2.34,2.28 -4.38,2.28 h 0 c -2.1,0 -3.72,-1.2 -4.62,-3.06 -0.6,-1.26 -0.96,-3.36 -0.96,-5.82 0,-4.08 2.46,-7.2 5.82,-7.2 l 0.18,-1.2 c -3.36,0 -5.16,2.22 -6.12,4.14 z"
     id="path3859" />
  <path
     id="path4035"
     d="m 595.57307,669.5737 0,-0.06 0,-0.06 0,-0.06 0,0 0,-0.06 0,-0.06 0,-0.06 0,0 0,-0.06 0,-0.06 0,0 0,-0.06 0,0 0,-0.06 0,0 0,-0.06 -0.06,0 0,-0.06 0,-0.06 0,-0.06 0,0 -0.06,-0.06 0,-0.06 -0.06,0 0,-0.06 -0.06,0 0,-0.06 -0.06,0 -0.06,0 0,-0.06 -0.06,0 -0.06,0 -0.06,0 0,0 -0.06,0 0,0 -0.06,0 -0.06,0 0,0 -0.06,0 -0.06,0 0,0 -0.06,0 -0.06,0 -0.06,0 0,0 -0.06,0 -0.06,0 -0.06,0 -0.06,0 c -2.64,2.58 -6.48,2.64 -8.16,2.64 v 1.5 c 0.96,0 3.72,0 6.06,-1.14 v 21.24 c 0,1.38 0,1.92 -4.2,1.92 h -1.56 v 1.5 c 0.72,0 5.88,-0.18 7.44,-0.18 1.26,0 6.54,0.18 7.44,0.18 v -1.5 h -1.56 c -4.2,0 -4.2,-0.54 -4.2,-1.92 z"
     inkscape:connector-curvature="0"
     style="font-style:normal;font-variant:normal;font-weight:normal;font-stretch:normal;letter-spacing:normal;word-spacing:normal;text-anchor:start;fill:#800000;stroke:#000000;stroke-width:0;stroke-linecap:butt;stroke-linejoin:miter;stroke-miterlimit:10.43299961000000000;stroke-opacity:1;stroke-dasharray:none;stroke-dashoffset:0" />
  <path
     id="path4037"
     d="m 626.95307,682.7737 0,-0.84 0,-0.78 -0.06,-0.78 -0.06,-0.78 -0.06,-0.72 -0.06,-0.72 -0.12,-0.72 -0.12,-0.66 -0.18,-0.66 -0.18,-0.6 -0.18,-0.66 -0.24,-0.6 -0.24,-0.6 -0.3,-0.54 -0.3,-0.54 -0.18,-0.3 -0.18,-0.3 c -1.26,-1.92 -3.9,-3.54 -7.2,-3.54 v 1.14 c 2.22,0 4.44,1.38 5.16,3.78 0.66,2.28 0.72,5.28 0.72,8.88 0,3.12 0,6.18 -0.54,8.82 -0.84,3.78 -3.66,4.74 -5.34,4.74 h 0 c -1.92,0 -4.5,-1.14 -5.34,-4.56 -0.54,-2.46 -0.54,-5.88 -0.54,-9 0,-3 0,-6.18 0.6,-8.52 0.9,-3.24 3.54,-4.14 5.28,-4.14 v -1.14 c -9.72,0 -9.72,11.34 -9.72,14.34 0,3 0,14.16 9.72,14.16 9.66,0 9.66,-11.16 9.66,-14.16 z"
     inkscape:connector-curvature="0"
     style="font-style:normal;font-variant:normal;font-weight:normal;font-stretch:normal;letter-spacing:normal;word-spacing:normal;text-anchor:start;fill:#800000;stroke:#000000;stroke-width:0;stroke-linecap:butt;stroke-linejoin:miter;stroke-miterlimit:10.43299961000000000;stroke-opacity:1;stroke-dasharray:none;stroke-dashoffset:0" />
  <path
     id="path4039"
     d="m 642.25307,680.9737 h 4.98 c -0.66,2.46 -1.56,6.3 -1.56,9.6 0,1.62 0.18,2.76 0.42,3.72 0.66,2.04 1.26,2.22 1.92,2.22 0.96,0 1.92,-0.84 1.92,-1.86 0,-0.36 -0.06,-0.54 -0.3,-0.9 -0.78,-1.56 -1.56,-3.96 -1.56,-7.38 0,-0.78 0,-2.46 0.6,-5.4 h 5.22 c 0.72,0 1.08,0 1.56,-0.36 0.54,-0.42 0.66,-1.08 0.66,-1.26 0,-1.2 -1.08,-1.2 -1.74,-1.2 h -15.78 c -1.68,0 -2.88,0.36 -4.74,2.1 -1.14,0.96 -2.76,3.18 -2.76,3.6 0,0.48 0.54,0.48 0.72,0.48 0.48,0 0.54,-0.06 0.78,-0.48 2.1,-2.88 4.68,-2.88 5.64,-2.88 h 2.52 c -1.26,4.56 -3.54,9.48 -4.8,12 -0.24,0.54 -0.66,1.44 -0.78,1.62 -0.06,0.12 -0.12,0.3 -0.12,0.6 0,0.66 0.48,1.32 1.44,1.32 1.68,0 2.16,-1.86 3.12,-5.64 z"
     inkscape:connector-curvature="0"
     style="font-style:normal;font-variant:normal;font-weight:normal;font-stretch:normal;letter-spacing:normal;word-spacing:normal;text-anchor:start;fill:#000000;stroke:#000000;stroke-width:0;stroke-linecap:butt;stroke-linejoin:miter;stroke-miterlimit:10.43299961;stroke-opacity:1;stroke-dasharray:none;stroke-dashoffset:0" />
  <line
     id="line4041"
     y2="704.67371"
     x2="658.69305"
     y1="704.67371"
     x1="581.59308"
     style="font-style:normal;font-variant:normal;font-weight:normal;font-stretch:normal;letter-spacing:normal;word-spacing:normal;text-anchor:start;fill:none;stroke:#000000;stroke-width:2.38800001;stroke-linecap:butt;stroke-linejoin:miter;stroke-miterlimit:10.43299961;stroke-opacity:1;stroke-dasharray:none;stroke-dashoffset:0" />
  <path
     id="path4043"
     d="m 614.47307,726.6337 0,-0.66 0.06,-0.66 0,-0.6 0,-0.6 0.06,-0.6 0.06,-0.6 0.06,-0.6 0.12,-0.54 0.12,-0.6 0.12,-0.54 0.18,-0.54 0.18,-0.54 0.06,-0.24 0.12,-0.24 0.12,-0.3 0.12,-0.24 0.12,-0.24 0.12,-0.24 0.12,-0.24 0.18,-0.24 c 1.38,-2.28 3.66,-3.78 6.36,-3.78 1.2,0 2.88,0.3 3.72,1.44 -1.02,0.06 -1.92,0.78 -1.92,1.98 0,1.08 0.72,1.98 1.98,1.98 1.26,0 1.98,-0.84 1.98,-2.04 0,-2.46 -1.74,-4.62 -5.88,-4.62 -6,0 -12.18,5.52 -12.18,14.52 0,10.8 5.1,14.04 9.72,14.04 5.1,0 9.54,-3.9 9.54,-9.36 0,-5.28 -4.26,-9.24 -9.12,-9.24 l -0.18,1.2 c 1.86,0 3.18,0.72 4.2,2.28 1.02,1.62 1.08,3.36 1.08,5.76 0,2.4 0,4.14 -1.14,5.76 -1.02,1.44 -2.34,2.28 -4.38,2.28 h 0 c -2.1,0 -3.72,-1.2 -4.62,-3.06 -0.6,-1.26 -0.96,-3.36 -0.96,-5.82 0,-4.08 2.46,-7.2 5.82,-7.2 l 0.18,-1.2 c -3.36,0 -5.16,2.22 -6.12,4.14 z"
     inkscape:connector-curvature="0"
     style="font-style:normal;font-variant:normal;font-weight:normal;font-stretch:normal;letter-spacing:normal;word-spacing:normal;text-anchor:start;fill:#000000;stroke:#000000;stroke-width:0;stroke-linecap:butt;stroke-linejoin:miter;stroke-miterlimit:10.43299961;stroke-opacity:1;stroke-dasharray:none;stroke-dashoffset:0" />
  <text
     sodipodi:linespacing="125%"
     id="text3282-1"
     y="715.87207"
     x="685.10889"
     style="font-size:36px;font-style:normal;font-weight:normal;text-align:center;line-height:125%;letter-spacing:0px;word-spacing:0px;text-anchor:middle;fill:#000000;fill-opacity:1;stroke:none;font-family:Sans"
     xml:space="preserve"><tspan
       y="715.87207"
       x="685.10889"
       id="tspan3284-3"
       sodipodi:role="line">or</tspan></text>
  <g
     ns0:preamble=""
     ns0:text="$\\frac{5\\pi}{6}$"
     word-spacing="normal"
     letter-spacing="normal"
     font-size-adjust="none"
     font-stretch="normal"
     font-weight="normal"
     font-variant="normal"
     font-style="normal"
     stroke-miterlimit="10.433"
     xml:space="preserve"
     transform="matrix(6,0,0,-6,-636.55338,4965.4559)"
     id="g4240"
     style="font-style:normal;font-variant:normal;font-weight:normal;font-stretch:normal;letter-spacing:normal;word-spacing:normal;text-anchor:start;fill:none;stroke:#000000;stroke-linecap:butt;stroke-linejoin:miter;stroke-miterlimit:10.43299961;stroke-opacity:1;stroke-dasharray:none;stroke-dashoffset:0">
<path
   id="path4242"
   d="m 225.71,714.93 0.03,-0.01 0.03,-0.01 0.03,-0.01 0.03,0 0.03,-0.01 0.03,0 0.03,-0.01 0.03,0 0.02,-0.01 0.03,0 0.02,-0.01 0.03,0 0.02,0 0.02,-0.01 0.03,0 0.02,0 0.02,0 0.02,0 0.02,-0.01 0.01,0 0.02,0 0.02,0 0.02,0 0.01,0 0.02,0 0.01,0 0.01,0 0.02,0 0.01,0 0.01,0 0.01,0 0.01,0 c 0.92,0 1.47,0.62 1.47,0.73 0,0.07 -0.05,0.09 -0.09,0.09 -0.01,0 -0.03,0 -0.05,-0.02 -0.17,-0.06 -0.54,-0.2 -1.06,-0.2 -0.19,0 -0.56,0.02 -1.01,0.19 -0.07,0.03 -0.09,0.03 -0.09,0.03 -0.09,0 -0.09,-0.07 -0.09,-0.18 v -2.05 c 0,-0.12 0,-0.21 0.11,-0.21 0.06,0 0.07,0.02 0.14,0.1 0.3,0.38 0.72,0.44 0.97,0.44 0.41,0 0.6,-0.33 0.64,-0.39 0.12,-0.23 0.16,-0.49 0.16,-0.9 0,-0.2 0,-0.62 -0.21,-0.92 -0.17,-0.25 -0.47,-0.42 -0.81,-0.42 -0.45,0 -0.92,0.25 -1.09,0.71 0.26,-0.02 0.39,0.15 0.39,0.34 0,0.3 -0.25,0.36 -0.35,0.36 -0.01,0 -0.34,0 -0.34,-0.38 0,-0.63 0.57,-1.25 1.4,-1.25 0.9,0 1.68,0.66 1.68,1.54 0,0.78 -0.6,1.5 -1.47,1.5 -0.3,0 -0.67,-0.07 -0.97,-0.34 z"
   inkscape:connector-curvature="0"
   style="fill:#000000;stroke-width:0" />
<path
   id="path4244"
   d="m 230.76,713.57 h 0.83 c -0.1,-0.41 -0.25,-1.05 -0.25,-1.6 0,-0.27 0.03,-0.46 0.07,-0.62 0.11,-0.34 0.21,-0.37 0.32,-0.37 0.16,0 0.32,0.14 0.32,0.31 0,0.06 -0.01,0.09 -0.05,0.15 -0.13,0.26 -0.26,0.66 -0.26,1.23 0,0.13 0,0.41 0.1,0.9 h 0.87 c 0.12,0 0.18,0 0.26,0.06 0.09,0.07 0.11,0.18 0.11,0.21 0,0.2 -0.18,0.2 -0.29,0.2 h -2.63 c -0.29,0 -0.48,-0.06 -0.79,-0.35 -0.19,-0.16 -0.46,-0.53 -0.46,-0.6 0,-0.08 0.09,-0.08 0.12,-0.08 0.08,0 0.08,0.01 0.13,0.08 0.35,0.48 0.78,0.48 0.94,0.48 h 0.42 c -0.22,-0.76 -0.59,-1.58 -0.8,-2 -0.04,-0.09 -0.11,-0.24 -0.13,-0.27 -0.01,-0.02 -0.02,-0.05 -0.02,-0.1 0,-0.11 0.08,-0.22 0.24,-0.22 0.28,0 0.36,0.31 0.52,0.94 z"
   inkscape:connector-curvature="0"
   style="fill:#000000;stroke-width:0" />
<line
   id="line4246"
   y2="709.62"
   x2="233.50999"
   y1="709.62"
   x1="224.63"
   style="stroke-width:0.398" />
<path
   id="path4248"
   d="m 228.13,705.96 0,0.11 0,0.11 0,0.1 0.01,0.1 0.01,0.1 0.01,0.1 0.01,0.1 0.01,0.09 0.02,0.1 0.02,0.09 0.03,0.09 0.03,0.09 0.02,0.04 0.01,0.04 0.02,0.05 0.02,0.04 0.02,0.04 0.02,0.04 0.03,0.04 0.02,0.04 c 0.24,0.38 0.61,0.63 1.06,0.63 0.21,0 0.49,-0.05 0.63,-0.24 -0.18,-0.01 -0.33,-0.13 -0.33,-0.33 0,-0.18 0.12,-0.33 0.33,-0.33 0.21,0 0.34,0.14 0.34,0.34 0,0.41 -0.3,0.77 -0.98,0.77 -1.01,0 -2.03,-0.92 -2.03,-2.42 0,-1.8 0.85,-2.34 1.61,-2.34 0.85,0 1.59,0.65 1.59,1.56 0,0.88 -0.7,1.54 -1.52,1.54 l -0.03,-0.2 c 0.32,0 0.54,-0.12 0.71,-0.38 0.17,-0.27 0.17,-0.56 0.17,-0.96 0,-0.4 0,-0.69 -0.19,-0.96 -0.16,-0.24 -0.39,-0.38 -0.73,-0.38 h 0 c -0.34,0 -0.62,0.2 -0.76,0.51 -0.11,0.21 -0.16,0.56 -0.16,0.97 0,0.68 0.4,1.2 0.96,1.2 l 0.03,0.2 c -0.55,0 -0.86,-0.37 -1.01,-0.69 z"
   inkscape:connector-curvature="0"
   style="fill:#000000;stroke-width:0" />
</g>  <path
     id="path4450"
     d="m 370.40807,706.1299 0,0.48 0,0.48 -0.06,0.42 0,0.48 -0.06,0.42 0,0.42 -0.06,0.36 -0.06,0.42 -0.06,0.36 -0.06,0.42 -0.06,0.36 -0.06,0.3 -0.12,0.36 -0.06,0.3 -0.12,0.36 -0.06,0.3 -0.12,0.3 -0.12,0.24 -0.06,0.3 -0.12,0.3 -0.24,0.48 -0.24,0.48 -0.3,0.42 -0.24,0.36 -0.3,0.42 -0.3,0.3 -0.3,0.3 -0.3,0.3 -0.36,0.24 -0.3,0.18 -0.3,0.24 -0.3,0.12 -0.36,0.18 -0.3,0.12 -0.3,0.12 -0.3,0.06 -0.3,0.12 -0.3,0 -0.3,0.06 -0.24,0.06 -0.24,0 -0.3,0 c -0.9,0 -3.12,-0.12 -4.26,-1.38 1.74,-0.18 1.86,-1.62 1.86,-1.98 0,-1.02 -0.72,-1.98 -1.98,-1.98 -1.26,0 -1.98,0.84 -1.98,2.1 0,2.82 2.4,4.56 6.42,4.56 6,0 11.64,-5.64 11.64,-14.58 0,-10.32 -4.62,-13.92 -9.48,-13.92 -1.38,0 -4.26,0.18 -6.66,2.52 -1.44,1.38 -3.12,3 -3.12,6.78 0,5.28 4.26,9.18 9.12,9.18 l 0.24,-1.14 c -1.62,0 -3.18,-0.54 -4.38,-2.46 -0.96,-1.56 -0.96,-3.3 -0.96,-5.58 0,-2.46 0,-4.14 1.26,-5.76 0.96,-1.5 2.34,-2.34 4.5,-2.34 2.16,0 3.42,1.32 4.08,2.4 1.14,1.74 1.26,4.68 1.26,6.12 0,5.46 -3.12,7.62 -5.76,7.62 h 0 l -0.24,1.14 c 3.36,0 5.16,-2.22 6.12,-4.08 z"
     inkscape:connector-curvature="0"
     style="font-style:normal;font-variant:normal;font-weight:normal;font-stretch:normal;letter-spacing:normal;word-spacing:normal;text-anchor:start;fill:#800000;stroke:#000000;stroke-width:0;stroke-linecap:butt;stroke-linejoin:miter;stroke-miterlimit:10.43299961000000000;stroke-opacity:1;stroke-dasharray:none;stroke-dashoffset:0" />
  <path
     id="path4452"
     d="m 389.72807,703.4299 h 4.98 c -0.6,2.46 -1.5,6.3 -1.5,9.6 0,1.62 0.18,2.76 0.42,3.72 0.66,2.04 1.26,2.22 1.92,2.22 0.96,0 1.92,-0.84 1.92,-1.86 0,-0.36 -0.06,-0.54 -0.3,-0.9 -0.78,-1.56 -1.56,-3.96 -1.56,-7.38 0,-0.78 0,-2.46 0.6,-5.4 h 5.22 c 0.72,0 1.08,0 1.56,-0.36 0.54,-0.42 0.66,-1.08 0.66,-1.26 0,-1.2 -1.08,-1.2 -1.74,-1.2 h -15.78 c -1.74,0 -2.88,0.36 -4.74,2.1 -1.14,0.96 -2.76,3.18 -2.76,3.6 0,0.48 0.54,0.48 0.72,0.48 0.48,0 0.48,-0.06 0.78,-0.48 2.1,-2.88 4.68,-2.88 5.64,-2.88 h 2.52 c -1.32,4.56 -3.54,9.48 -4.8,12 -0.24,0.54 -0.66,1.44 -0.78,1.62 -0.06,0.12 -0.12,0.3 -0.12,0.6 0,0.66 0.48,1.32 1.44,1.32 1.68,0 2.16,-1.86 3.12,-5.64 z"
     inkscape:connector-curvature="0"
     style="font-style:normal;font-variant:normal;font-weight:normal;font-stretch:normal;letter-spacing:normal;word-spacing:normal;text-anchor:start;fill:#000000;stroke:#000000;stroke-width:0;stroke-linecap:butt;stroke-linejoin:miter;stroke-miterlimit:10.43299961;stroke-opacity:1;stroke-dasharray:none;stroke-dashoffset:0" />
  <line
     id="line4454"
     y2="727.12994"
     x2="406.22803"
     y1="727.12994"
     x1="352.94809"
     style="font-style:normal;font-variant:normal;font-weight:normal;font-stretch:normal;letter-spacing:normal;word-spacing:normal;text-anchor:start;fill:none;stroke:#000000;stroke-width:2.38800001;stroke-linecap:butt;stroke-linejoin:miter;stroke-miterlimit:10.43299961;stroke-opacity:1;stroke-dasharray:none;stroke-dashoffset:0" />
  <path
     id="path4456"
     d="m 373.94807,749.0899 0,-0.66 0,-0.66 0,-0.6 0.06,-0.6 0.06,-0.6 0.06,-0.6 0.06,-0.6 0.06,-0.54 0.12,-0.6 0.12,-0.54 0.18,-0.54 0.18,-0.54 0.12,-0.24 0.06,-0.24 0.12,-0.3 0.12,-0.24 0.12,-0.24 0.12,-0.24 0.18,-0.24 0.12,-0.24 c 1.44,-2.28 3.66,-3.78 6.36,-3.78 1.26,0 2.94,0.3 3.78,1.44 -1.08,0.06 -1.98,0.78 -1.98,1.98 0,1.08 0.72,1.98 1.98,1.98 1.26,0 2.04,-0.84 2.04,-2.04 0,-2.46 -1.8,-4.62 -5.88,-4.62 -6.06,0 -12.18,5.52 -12.18,14.52 0,10.8 5.1,14.04 9.66,14.04 5.1,0 9.54,-3.9 9.54,-9.36 0,-5.28 -4.2,-9.24 -9.12,-9.24 l -0.18,1.2 c 1.92,0 3.24,0.72 4.26,2.28 1.02,1.62 1.02,3.36 1.02,5.76 0,2.4 0,4.14 -1.14,5.76 -0.96,1.44 -2.34,2.28 -4.38,2.28 h 0 c -2.04,0 -3.72,-1.2 -4.56,-3.06 -0.66,-1.26 -0.96,-3.36 -0.96,-5.82 0,-4.08 2.4,-7.2 5.76,-7.2 l 0.18,-1.2 c -3.3,0 -5.16,2.22 -6.06,4.14 z"
     inkscape:connector-curvature="0"
     style="font-style:normal;font-variant:normal;font-weight:normal;font-stretch:normal;letter-spacing:normal;word-spacing:normal;text-anchor:start;fill:#000000;stroke:#000000;stroke-width:0;stroke-linecap:butt;stroke-linejoin:miter;stroke-miterlimit:10.43299961;stroke-opacity:1;stroke-dasharray:none;stroke-dashoffset:0" />
  <text
     sodipodi:linespacing="125%"
     id="text3282-6"
     y="739.34906"
     x="431.96616"
     style="font-size:36px;font-style:normal;font-weight:normal;text-align:center;line-height:125%;letter-spacing:0px;word-spacing:0px;text-anchor:middle;fill:#000000;fill-opacity:1;stroke:none;font-family:Sans"
     xml:space="preserve"><tspan
       y="739.34906"
       x="431.96616"
       id="tspan3284-8"
       sodipodi:role="line">or</tspan></text>
  <g
     ns0:preamble=""
     ns0:text="$\\frac{3\\pi}{2}$"
     word-spacing="normal"
     letter-spacing="normal"
     font-size-adjust="none"
     font-stretch="normal"
     font-weight="normal"
     font-variant="normal"
     font-style="normal"
     stroke-miterlimit="10.433"
     xml:space="preserve"
     transform="matrix(6,0,0,-6,-891.73754,4984.8499)"
     id="g4677"
     style="font-style:normal;font-variant:normal;font-weight:normal;font-stretch:normal;letter-spacing:normal;word-spacing:normal;text-anchor:start;fill:none;stroke:#000000;stroke-linecap:butt;stroke-linejoin:miter;stroke-miterlimit:10.43299961;stroke-opacity:1;stroke-dasharray:none;stroke-dashoffset:0">
<path
   id="path4679"
   d="m 226.53,713.37 0.05,0 0.05,0 0.05,-0.01 0.05,-0.01 0.04,-0.01 0.05,-0.01 0.04,-0.01 0.04,-0.02 0.05,-0.02 0.04,-0.02 0.04,-0.02 0.03,-0.03 0.04,-0.03 0.03,-0.02 0.04,-0.04 0.03,-0.03 0.03,-0.04 0.03,-0.03 0.03,-0.05 0.02,-0.04 0.02,-0.04 0.03,-0.05 0.02,-0.05 0.01,-0.05 0.02,-0.05 0.01,-0.06 0.02,-0.06 0.01,-0.06 0,-0.06 0.01,-0.06 0,-0.07 0,-0.07 c 0,-0.86 -0.5,-1.12 -0.9,-1.12 -0.28,0 -0.89,0.08 -1.19,0.49 0.33,0.01 0.41,0.24 0.41,0.39 0,0.22 -0.17,0.38 -0.39,0.38 -0.19,0 -0.39,-0.12 -0.39,-0.4 0,-0.66 0.73,-1.08 1.57,-1.08 0.97,0 1.64,0.64 1.64,1.34 0,0.54 -0.45,1.09 -1.21,1.25 0.73,0.26 0.99,0.78 0.99,1.21 0,0.55 -0.63,0.95 -1.4,0.95 -0.78,0 -1.37,-0.37 -1.37,-0.93 0,-0.23 0.15,-0.37 0.36,-0.37 0.22,0 0.36,0.17 0.36,0.36 0,0.2 -0.14,0.35 -0.36,0.36 0.25,0.31 0.73,0.38 0.98,0.38 0.32,0 0.76,-0.15 0.76,-0.75 0,-0.3 -0.1,-0.62 -0.28,-0.83 -0.23,-0.27 -0.43,-0.28 -0.78,-0.3 -0.17,-0.01 -0.18,-0.01 -0.22,-0.02 -0.01,0 -0.07,-0.02 -0.07,-0.09 0,-0.1 0.07,-0.1 0.18,-0.1 z"
   inkscape:connector-curvature="0"
   style="fill:#000000;stroke-width:0" />
<path
   id="path4681"
   d="m 230.76,713.57 h 0.83 c -0.1,-0.41 -0.25,-1.05 -0.25,-1.6 0,-0.27 0.03,-0.46 0.07,-0.62 0.11,-0.34 0.21,-0.37 0.32,-0.37 0.16,0 0.32,0.14 0.32,0.31 0,0.06 -0.01,0.09 -0.05,0.15 -0.13,0.26 -0.26,0.66 -0.26,1.23 0,0.13 0,0.41 0.1,0.9 h 0.87 c 0.12,0 0.18,0 0.26,0.06 0.09,0.07 0.11,0.18 0.11,0.21 0,0.2 -0.18,0.2 -0.29,0.2 h -2.63 c -0.29,0 -0.48,-0.06 -0.79,-0.35 -0.19,-0.16 -0.46,-0.53 -0.46,-0.6 0,-0.08 0.09,-0.08 0.12,-0.08 0.08,0 0.08,0.01 0.13,0.08 0.35,0.48 0.78,0.48 0.94,0.48 h 0.42 c -0.22,-0.76 -0.59,-1.58 -0.8,-2 -0.04,-0.09 -0.11,-0.24 -0.13,-0.27 -0.01,-0.02 -0.02,-0.05 -0.02,-0.1 0,-0.11 0.08,-0.22 0.24,-0.22 0.28,0 0.36,0.31 0.52,0.94 z"
   inkscape:connector-curvature="0"
   style="fill:#000000;stroke-width:0" />
<line
   id="line4683"
   y2="709.62"
   x2="233.50999"
   y1="709.62"
   x1="224.63"
   style="stroke-width:0.398" />
<path
   id="path4685"
   d="m 230.6,704.96 h -0.24 c -0.02,-0.16 -0.09,-0.57 -0.18,-0.64 -0.05,-0.04 -0.59,-0.04 -0.69,-0.04 h -1.28 c 0.73,0.65 0.97,0.84 1.39,1.17 0.52,0.41 1,0.84 1,1.5 0,0.84 -0.74,1.36 -1.63,1.36 -0.86,0 -1.45,-0.61 -1.45,-1.25 0,-0.35 0.3,-0.39 0.37,-0.39 0.17,0 0.37,0.12 0.37,0.37 0,0.13 -0.05,0.37 -0.41,0.37 0.21,0.49 0.69,0.65 1.02,0.65 0.69,0 1.05,-0.55 1.05,-1.11 0,-0.6 -0.43,-1.08 -0.65,-1.33 l -1.68,-1.66 c -0.07,-0.06 -0.07,-0.07 -0.07,-0.27 h 2.87 z"
   inkscape:connector-curvature="0"
   style="fill:#000000;stroke-width:0" />
</g>  <path
     id="path4911"
     d="m 156.47558,677.9715 0.3,-0.12 0.3,-0.18 0.3,-0.12 0.24,-0.18 0.3,-0.18 0.24,-0.12 0.3,-0.18 0.24,-0.18 0.24,-0.18 0.24,-0.18 0.24,-0.18 0.18,-0.18 0.24,-0.18 0.18,-0.18 0.18,-0.18 0.18,-0.18 0.18,-0.24 0.12,-0.18 0.18,-0.18 0.12,-0.24 0.12,-0.18 0.12,-0.24 0.12,-0.24 0.12,-0.24 0.06,-0.24 0.12,-0.18 0.06,-0.24 0.06,-0.3 0,-0.24 0.06,-0.24 0,-0.24 0,-0.3 c 0,-4.02 -4.2,-6.18 -8.28,-6.18 l -0.06,1.2 c 3.24,0 6.12,2.04 6.12,4.98 0,3.72 -4.32,5.58 -4.44,5.58 -0.06,0 -0.12,0 -0.42,-0.18 l -5.1,-2.94 c -1.08,-0.6 -2.22,-1.74 -2.22,-3.3 0,-2.64 3.06,-4.14 6.06,-4.14 l 0.06,-1.2 c -4.56,0 -8.34,3 -8.34,6.96 0,1.92 0.9,3.36 1.68,4.2 0.72,0.84 1.02,1.02 3.48,2.52 -2.34,0.96 -6.48,3.24 -6.48,7.62 0,4.62 4.8,7.2 9.6,7.2 l 0.06,-1.32 c -3.84,0 -7.14,-2.46 -7.14,-5.88 0,-3.12 2.28,-5.46 5.34,-6.84 h 0 l 5.7,3.3 c 1.08,0.6 3.18,1.86 3.18,4.32 0,3.12 -3.48,5.1 -7.08,5.1 l -0.06,1.32 c 5.28,0 9.66,-3.36 9.66,-7.86 0,-2.76 -1.62,-5.1 -4.08,-6.54 -0.54,-0.3 -1.98,-1.14 -2.58,-1.5 z"
     inkscape:connector-curvature="0"
     style="font-style:normal;font-variant:normal;font-weight:normal;font-stretch:normal;letter-spacing:normal;word-spacing:normal;text-anchor:start;fill:#800000;stroke:#000000;stroke-width:0;stroke-linecap:butt;stroke-linejoin:miter;stroke-miterlimit:10.43299961;stroke-opacity:1;stroke-dasharray:none;stroke-dashoffset:0" />
  <path
     id="path4913"
     d="m 178.43558,677.9115 h 4.98 c -0.6,2.46 -1.5,6.3 -1.5,9.6 0,1.62 0.18,2.76 0.42,3.72 0.66,2.04 1.26,2.22 1.92,2.22 0.96,0 1.92,-0.84 1.92,-1.86 0,-0.36 -0.06,-0.54 -0.3,-0.9 -0.78,-1.56 -1.56,-3.96 -1.56,-7.38 0,-0.78 0,-2.46 0.6,-5.4 h 5.22 c 0.72,0 1.08,0 1.56,-0.36 0.54,-0.42 0.66,-1.08 0.66,-1.26 0,-1.2 -1.08,-1.2 -1.74,-1.2 h -15.78 c -1.74,0 -2.88,0.36 -4.74,2.1 -1.14,0.96 -2.76,3.18 -2.76,3.6 0,0.48 0.54,0.48 0.72,0.48 0.48,0 0.48,-0.06 0.78,-0.48 2.1,-2.88 4.68,-2.88 5.64,-2.88 h 2.52 c -1.32,4.56 -3.54,9.48 -4.8,12 -0.24,0.54 -0.66,1.44 -0.78,1.62 -0.06,0.12 -0.12,0.3 -0.12,0.6 0,0.66 0.48,1.32 1.44,1.32 1.68,0 2.16,-1.86 3.12,-5.64 z"
     inkscape:connector-curvature="0"
     style="font-style:normal;font-variant:normal;font-weight:normal;font-stretch:normal;letter-spacing:normal;word-spacing:normal;text-anchor:start;fill:#000000;stroke:#000000;stroke-width:0;stroke-linecap:butt;stroke-linejoin:miter;stroke-miterlimit:10.43299961;stroke-opacity:1;stroke-dasharray:none;stroke-dashoffset:0" />
  <line
     id="line4915"
     y2="701.61151"
     x2="194.93555"
     y1="701.61151"
     x1="141.65561"
     style="font-style:normal;font-variant:normal;font-weight:normal;font-stretch:normal;letter-spacing:normal;word-spacing:normal;text-anchor:start;fill:none;stroke:#000000;stroke-width:2.38800001;stroke-linecap:butt;stroke-linejoin:miter;stroke-miterlimit:10.43299961;stroke-opacity:1;stroke-dasharray:none;stroke-dashoffset:0" />
  <path
     id="path4917"
     d="m 162.65558,723.5715 0,-0.66 0,-0.66 0,-0.6 0.06,-0.6 0.06,-0.6 0.06,-0.6 0.06,-0.6 0.06,-0.54 0.12,-0.6 0.12,-0.54 0.18,-0.54 0.18,-0.54 0.12,-0.24 0.06,-0.24 0.12,-0.3 0.12,-0.24 0.12,-0.24 0.12,-0.24 0.18,-0.24 0.12,-0.24 c 1.44,-2.28 3.66,-3.78 6.36,-3.78 1.26,0 2.94,0.3 3.78,1.44 -1.08,0.06 -1.98,0.78 -1.98,1.98 0,1.08 0.72,1.98 1.98,1.98 1.26,0 2.04,-0.84 2.04,-2.04 0,-2.46 -1.8,-4.62 -5.88,-4.62 -6.06,0 -12.18,5.52 -12.18,14.52 0,10.8 5.1,14.04 9.66,14.04 5.1,0 9.54,-3.9 9.54,-9.36 0,-5.28 -4.2,-9.24 -9.12,-9.24 l -0.18,1.2 c 1.92,0 3.24,0.72 4.26,2.28 1.02,1.62 1.02,3.36 1.02,5.76 0,2.4 0,4.14 -1.14,5.76 -0.96,1.44 -2.34,2.28 -4.38,2.28 h 0 c -2.04,0 -3.72,-1.2 -4.56,-3.06 -0.66,-1.26 -0.96,-3.36 -0.96,-5.82 0,-4.08 2.4,-7.2 5.76,-7.2 l 0.18,-1.2 c -3.3,0 -5.16,2.22 -6.06,4.14 z"
     inkscape:connector-curvature="0"
     style="font-style:normal;font-variant:normal;font-weight:normal;font-stretch:normal;letter-spacing:normal;word-spacing:normal;text-anchor:start;fill:#000000;stroke:#000000;stroke-width:0;stroke-linecap:butt;stroke-linejoin:miter;stroke-miterlimit:10.43299961;stroke-opacity:1;stroke-dasharray:none;stroke-dashoffset:0" />
  <text
     sodipodi:linespacing="125%"
     id="text3282-2"
     y="712.80988"
     x="218.6322"
     style="font-size:36px;font-style:normal;font-weight:normal;text-align:center;line-height:125%;letter-spacing:0px;word-spacing:0px;text-anchor:middle;fill:#000000;fill-opacity:1;stroke:none;font-family:Sans"
     xml:space="preserve"><tspan
       y="712.80988"
       x="218.6322"
       id="tspan3284-5"
       sodipodi:role="line">or</tspan></text>
  <g
     ns0:preamble=""
     ns0:text="$\\frac{4\\pi}{3}$"
     word-spacing="normal"
     letter-spacing="normal"
     font-size-adjust="none"
     font-stretch="normal"
     font-weight="normal"
     font-variant="normal"
     font-style="normal"
     stroke-miterlimit="10.433"
     xml:space="preserve"
     transform="matrix(6,0,0,-6,-1104.0508,4959.29)"
     id="g5162"
     style="font-style:normal;font-variant:normal;font-weight:normal;font-stretch:normal;letter-spacing:normal;word-spacing:normal;text-anchor:start;fill:none;stroke:#000000;stroke-linecap:butt;stroke-linejoin:miter;stroke-miterlimit:10.43299961;stroke-opacity:1;stroke-dasharray:none;stroke-dashoffset:0">
<path
   id="path5164"
   d="m 228.31,712.19 v 0.25 h -0.77 v 3.1 c 0,0.15 0,0.19 -0.15,0.19 -0.09,0 -0.12,0 -0.18,-0.09 l -2.31,-3.2 v -0.25 h 2.05 l 0.05,0.25 h -1.84 l 1.84,2.54 v -2.54 l -0.05,-0.25 v -0.57 c 0,-0.24 0,-0.32 -0.57,-0.32 h -0.18 v -0.25 c 0.34,0.01 0.79,0.03 1.04,0.03 0.26,0 0.7,-0.02 1.05,-0.03 v 0.25 h -0.19 c -0.56,0 -0.56,0.08 -0.56,0.32 v 0.57 z"
   inkscape:connector-curvature="0"
   style="fill:#000000;stroke-width:0" />
<path
   id="path5166"
   d="m 230.76,713.57 h 0.83 c -0.1,-0.41 -0.25,-1.05 -0.25,-1.6 0,-0.27 0.03,-0.46 0.07,-0.62 0.11,-0.34 0.21,-0.37 0.32,-0.37 0.16,0 0.32,0.14 0.32,0.31 0,0.06 -0.01,0.09 -0.05,0.15 -0.13,0.26 -0.26,0.66 -0.26,1.23 0,0.13 0,0.41 0.1,0.9 h 0.87 c 0.12,0 0.18,0 0.26,0.06 0.09,0.07 0.11,0.18 0.11,0.21 0,0.2 -0.18,0.2 -0.29,0.2 h -2.63 c -0.29,0 -0.48,-0.06 -0.79,-0.35 -0.19,-0.16 -0.46,-0.53 -0.46,-0.6 0,-0.08 0.09,-0.08 0.12,-0.08 0.08,0 0.08,0.01 0.13,0.08 0.35,0.48 0.78,0.48 0.94,0.48 h 0.42 c -0.22,-0.76 -0.59,-1.58 -0.8,-2 -0.04,-0.09 -0.11,-0.24 -0.13,-0.27 -0.01,-0.02 -0.02,-0.05 -0.02,-0.1 0,-0.11 0.08,-0.22 0.24,-0.22 0.28,0 0.36,0.31 0.52,0.94 z"
   inkscape:connector-curvature="0"
   style="fill:#000000;stroke-width:0" />
<line
   id="line5168"
   y2="709.62"
   x2="233.50999"
   y1="709.62"
   x1="224.63"
   style="stroke-width:0.398" />
<path
   id="path5170"
   d="m 228.98,706.01 0.05,0 0.05,0 0.05,-0.01 0.05,-0.01 0.05,-0.01 0.04,-0.01 0.05,-0.01 0.04,-0.02 0.04,-0.02 0.04,-0.02 0.04,-0.02 0.04,-0.03 0.03,-0.02 0.04,-0.03 0.03,-0.03 0.03,-0.04 0.03,-0.03 0.03,-0.04 0.03,-0.04 0.02,-0.05 0.03,-0.04 0.02,-0.05 0.02,-0.05 0.02,-0.05 0.01,-0.05 0.02,-0.06 0.01,-0.06 0.01,-0.06 0.01,-0.06 0,-0.06 0.01,-0.07 0,-0.07 c 0,-0.86 -0.51,-1.12 -0.91,-1.12 -0.28,0 -0.89,0.08 -1.18,0.49 0.32,0.01 0.4,0.24 0.4,0.39 0,0.22 -0.17,0.38 -0.38,0.38 -0.2,0 -0.39,-0.12 -0.39,-0.4 0,-0.66 0.72,-1.08 1.56,-1.08 0.97,0 1.64,0.65 1.64,1.34 0,0.54 -0.44,1.09 -1.21,1.25 0.73,0.26 1,0.78 1,1.21 0,0.55 -0.64,0.96 -1.41,0.96 -0.77,0 -1.37,-0.38 -1.37,-0.93 0,-0.24 0.16,-0.37 0.37,-0.37 0.21,0 0.35,0.16 0.35,0.35 0,0.2 -0.14,0.35 -0.35,0.36 0.24,0.31 0.72,0.38 0.98,0.38 0.31,0 0.75,-0.15 0.75,-0.75 0,-0.3 -0.1,-0.61 -0.28,-0.83 -0.23,-0.26 -0.42,-0.28 -0.77,-0.3 -0.18,-0.01 -0.19,-0.01 -0.22,-0.02 -0.02,0 -0.07,-0.01 -0.07,-0.09 0,-0.1 0.06,-0.1 0.18,-0.1 z"
   inkscape:connector-curvature="0"
   style="fill:#000000;stroke-width:0" />
</g>  <path
     id="path5420"
     d="m 84.3581,551.4675 0.06,-0.06 0.06,0 0,-0.06 0.06,-0.06 0,0 0.06,-0.06 0,-0.06 0,0 0.06,-0.06 0,0 0,-0.06 0.06,0 0,-0.06 0,-0.06 0,0 0.06,-0.06 0,-0.06 0,0 0,-0.06 0,-0.06 0,-0.06 0,-0.06 0,-0.06 0,-0.06 0,-0.06 0,-0.06 0,-0.06 0,-0.12 0,-0.06 0,-0.06 0,0 0,-0.06 0,-0.06 0,-0.06 0,-0.06 h -10.92 c -1.68,0 -2.16,0 -3.66,-0.12 -2.16,-0.18 -2.22,-0.48 -2.34,-1.2 h -1.44 l -1.44,8.94 h 1.38 c 0.12,-0.6 0.54,-3.36 1.2,-3.78 0.3,-0.24 3.72,-0.24 4.32,-0.24 h 9.12 c -1.32,1.74 -3.48,4.32 -4.32,5.46 -5.52,7.2 -6,13.8 -6,16.32 0,0.42 0,2.34 1.98,2.34 1.98,0 1.98,-1.86 1.98,-2.4 v -1.68 c 0,-8.1 1.68,-11.82 3.48,-14.04 z"
     inkscape:connector-curvature="0"
     style="font-style:normal;font-variant:normal;font-weight:normal;font-stretch:normal;letter-spacing:normal;word-spacing:normal;text-anchor:start;fill:#800000;stroke:#000000;stroke-width:0;stroke-linecap:butt;stroke-linejoin:miter;stroke-miterlimit:10.43299961000000000;stroke-opacity:1;stroke-dasharray:none;stroke-dashoffset:0" />
  <path
     id="path5422"
     d="m 98.8181,561.5475 h 4.98 c -0.6,2.46 -1.5,6.3 -1.5,9.6 0,1.62 0.18,2.76 0.42,3.72 0.66,2.04 1.26,2.22 1.92,2.22 0.96,0 1.92,-0.84 1.92,-1.86 0,-0.36 -0.06,-0.54 -0.3,-0.9 -0.78,-1.56 -1.56,-3.96 -1.56,-7.38 0,-0.78 0,-2.46 0.6,-5.4 h 5.22 c 0.72,0 1.08,0 1.56,-0.36 0.54,-0.42 0.66,-1.08 0.66,-1.26 0,-1.2 -1.08,-1.2 -1.74,-1.2 h -15.78 c -1.74,0 -2.88,0.36 -4.74,2.1 -1.14,0.96 -2.76,3.18 -2.76,3.6 0,0.48 0.54,0.48 0.72,0.48 0.48,0 0.48,-0.06 0.78,-0.48 2.1,-2.88 4.68,-2.88 5.64,-2.88 h 2.52 c -1.32,4.56 -3.54,9.48 -4.8,12 -0.24,0.54 -0.66,1.44 -0.78,1.62 -0.06,0.12 -0.12,0.3 -0.12,0.6 0,0.66 0.48,1.32 1.44,1.32 1.68,0 2.16,-1.86 3.12,-5.64 z"
     inkscape:connector-curvature="0"
     style="font-style:normal;font-variant:normal;font-weight:normal;font-stretch:normal;letter-spacing:normal;word-spacing:normal;text-anchor:start;fill:#000000;stroke:#000000;stroke-width:0;stroke-linecap:butt;stroke-linejoin:miter;stroke-miterlimit:10.43299961;stroke-opacity:1;stroke-dasharray:none;stroke-dashoffset:0" />
  <line
     id="line5424"
     y2="585.24756"
     x2="115.31807"
     y1="585.24756"
     x1="62.038128"
     style="font-style:normal;font-variant:normal;font-weight:normal;font-stretch:normal;letter-spacing:normal;word-spacing:normal;text-anchor:start;fill:none;stroke:#000000;stroke-width:2.38800001;stroke-linecap:butt;stroke-linejoin:miter;stroke-miterlimit:10.43299961;stroke-opacity:1;stroke-dasharray:none;stroke-dashoffset:0" />
  <path
     id="path5426"
     d="m 83.0381,607.2075 0,-0.66 0,-0.66 0,-0.6 0.06,-0.6 0.06,-0.6 0.06,-0.6 0.06,-0.6 0.06,-0.54 0.12,-0.6 0.12,-0.54 0.18,-0.54 0.18,-0.54 0.12,-0.24 0.06,-0.24 0.12,-0.3 0.12,-0.24 0.12,-0.24 0.12,-0.24 0.18,-0.24 0.12,-0.24 c 1.44,-2.28 3.66,-3.78 6.36,-3.78 1.26,0 2.94,0.3 3.78,1.44 -1.08,0.06 -1.98,0.78 -1.98,1.98 0,1.08 0.72,1.98 1.98,1.98 1.26,0 2.04,-0.84 2.04,-2.04 0,-2.46 -1.8,-4.62 -5.88,-4.62 -6.06,0 -12.18,5.52 -12.18,14.52 0,10.8 5.1,14.04 9.66,14.04 5.1,0 9.54,-3.9 9.54,-9.36 0,-5.28 -4.2,-9.24 -9.12,-9.24 l -0.18,1.2 c 1.92,0 3.24,0.72 4.26,2.28 1.02,1.62 1.02,3.36 1.02,5.76 0,2.4 0,4.14 -1.14,5.76 -0.96,1.44 -2.34,2.28 -4.38,2.28 h 0 c -2.04,0 -3.72,-1.2 -4.56,-3.06 -0.66,-1.26 -0.96,-3.36 -0.96,-5.82 0,-4.08 2.4,-7.2 5.76,-7.2 l 0.18,-1.2 c -3.3,0 -5.16,2.22 -6.06,4.14 z"
     inkscape:connector-curvature="0"
     style="font-style:normal;font-variant:normal;font-weight:normal;font-stretch:normal;letter-spacing:normal;word-spacing:normal;text-anchor:start;fill:#000000;stroke:#000000;stroke-width:0;stroke-linecap:butt;stroke-linejoin:miter;stroke-miterlimit:10.43299961;stroke-opacity:1;stroke-dasharray:none;stroke-dashoffset:0" />
  <path
     style="font-style:normal;font-variant:normal;font-weight:normal;font-stretch:normal;letter-spacing:normal;word-spacing:normal;text-anchor:start;fill:#800000;stroke:#000000;stroke-width:0;stroke-linecap:butt;stroke-linejoin:miter;stroke-miterlimit:10.43299961000000000;stroke-opacity:1;stroke-dasharray:none;stroke-dashoffset:0"
     inkscape:connector-curvature="0"
     d="m 22.3449,329.2988 0,-0.66 0.06,-0.6 0,-0.66 0,-0.6 0.06,-0.6 0.06,-0.6 0.06,-0.6 0.12,-0.54 0.12,-0.54 0.12,-0.6 0.18,-0.54 0.18,-0.54 0.06,-0.24 0.12,-0.24 0.12,-0.3 0.12,-0.24 0.12,-0.24 0.12,-0.24 0.12,-0.24 0.18,-0.24 c 1.38,-2.28 3.66,-3.78 6.3,-3.78 1.26,0 2.94,0.3 3.78,1.44 -1.02,0.06 -1.92,0.78 -1.92,1.98 0,1.08 0.72,1.98 1.98,1.98 1.26,0 1.98,-0.84 1.98,-2.04 0,-2.4 -1.74,-4.56 -5.88,-4.56 -6,0 -12.18,5.46 -12.18,14.46 0,10.8 5.1,14.04 9.72,14.04 5.1,0 9.54,-3.84 9.54,-9.36 0,-5.28 -4.26,-9.18 -9.12,-9.18 l -0.24,1.14 c 1.98,0 3.24,0.78 4.32,2.28 0.96,1.62 1.02,3.36 1.02,5.76 0,2.4 0,4.14 -1.14,5.76 -1.02,1.5 -2.34,2.28 -4.38,2.28 h 0 c -2.1,0 -3.72,-1.2 -4.62,-3.06 -0.6,-1.26 -0.96,-3.36 -0.96,-5.82 0,-4.08 2.46,-7.2 5.76,-7.2 l 0.24,-1.14 c -3.36,0 -5.16,2.16 -6.12,4.08 z"
     id="path5686" />
  <path
     style="font-style:normal;font-variant:normal;font-weight:normal;font-stretch:normal;letter-spacing:normal;word-spacing:normal;text-anchor:start;fill:#000000;stroke:#000000;stroke-width:0;stroke-linecap:butt;stroke-linejoin:miter;stroke-miterlimit:10.43299961;stroke-opacity:1;stroke-dasharray:none;stroke-dashoffset:0"
     inkscape:connector-curvature="0"
     d="m 52.8849,327.7988 h 4.98 c -0.6,2.46 -1.5,6.3 -1.5,9.6 0,1.62 0.18,2.76 0.42,3.72 0.66,2.04 1.26,2.22 1.92,2.22 0.96,0 1.92,-0.84 1.92,-1.86 0,-0.36 -0.06,-0.54 -0.3,-0.9 -0.78,-1.56 -1.56,-3.96 -1.56,-7.38 0,-0.78 0,-2.46 0.6,-5.4 h 5.22 c 0.72,0 1.08,0 1.56,-0.36 0.54,-0.42 0.66,-1.08 0.66,-1.26 0,-1.2 -1.08,-1.2 -1.74,-1.2 h -15.78 c -1.74,0 -2.88,0.36 -4.74,2.1 -1.14,0.96 -2.76,3.18 -2.76,3.6 0,0.48 0.54,0.48 0.72,0.48 0.48,0 0.48,-0.06 0.78,-0.48 2.1,-2.88 4.68,-2.88 5.64,-2.88 h 2.52 c -1.32,4.56 -3.54,9.48 -4.8,12 -0.24,0.54 -0.66,1.44 -0.78,1.62 -0.06,0.12 -0.12,0.3 -0.12,0.6 0,0.66 0.48,1.32 1.44,1.32 1.68,0 2.16,-1.86 3.12,-5.64 z"
     id="path5688" />
  <line
     style="font-style:normal;font-variant:normal;font-weight:normal;font-stretch:normal;letter-spacing:normal;word-spacing:normal;text-anchor:start;fill:none;stroke:#000000;stroke-width:2.38800001;stroke-linecap:butt;stroke-linejoin:miter;stroke-miterlimit:10.43299961;stroke-opacity:1;stroke-dasharray:none;stroke-dashoffset:0"
     x1="16.104929"
     y1="351.49884"
     x2="69.384865"
     y2="351.49884"
     id="line5690" />
  <path
     style="font-style:normal;font-variant:normal;font-weight:normal;font-stretch:normal;letter-spacing:normal;word-spacing:normal;text-anchor:start;fill:#000000;stroke:#000000;stroke-width:0;stroke-linecap:butt;stroke-linejoin:miter;stroke-miterlimit:10.43299961;stroke-opacity:1;stroke-dasharray:none;stroke-dashoffset:0"
     inkscape:connector-curvature="0"
     d="m 37.1049,373.4588 0,-0.66 0,-0.66 0,-0.6 0.06,-0.6 0.06,-0.6 0.06,-0.6 0.06,-0.6 0.06,-0.54 0.12,-0.6 0.12,-0.54 0.18,-0.54 0.18,-0.54 0.12,-0.24 0.06,-0.24 0.12,-0.3 0.12,-0.24 0.12,-0.24 0.12,-0.24 0.18,-0.24 0.12,-0.24 c 1.44,-2.28 3.66,-3.78 6.36,-3.78 1.26,0 2.94,0.3 3.78,1.44 -1.08,0.06 -1.98,0.78 -1.98,1.98 0,1.08 0.72,1.98 1.98,1.98 1.26,0 2.04,-0.84 2.04,-2.04 0,-2.46 -1.8,-4.62 -5.88,-4.62 -6.06,0 -12.18,5.52 -12.18,14.52 0,10.8 5.1,14.04 9.66,14.04 5.1,0 9.54,-3.9 9.54,-9.36 0,-5.28 -4.2,-9.24 -9.12,-9.24 l -0.18,1.2 c 1.92,0 3.24,0.72 4.26,2.28 1.02,1.62 1.02,3.36 1.02,5.76 0,2.4 0,4.14 -1.14,5.76 -0.96,1.44 -2.34,2.28 -4.38,2.28 h 0 c -2.04,0 -3.72,-1.2 -4.56,-3.06 -0.66,-1.26 -0.96,-3.36 -0.96,-5.82 0,-4.08 2.4,-7.2 5.76,-7.2 l 0.18,-1.2 c -3.3,0 -5.16,2.22 -6.06,4.14 z"
     id="path5692" />
  <text
     xml:space="preserve"
     style="font-size:36px;font-style:normal;font-weight:normal;text-align:center;line-height:125%;letter-spacing:0px;word-spacing:0px;text-anchor:middle;fill:#000000;fill-opacity:1;stroke:none;font-family:Sans"
     x="42.044765"
     y="418.83768"
     id="text3282-3"
     sodipodi:linespacing="125%"><tspan
       sodipodi:role="line"
       id="tspan3284-84"
       x="42.044765"
       y="418.83768">or</tspan></text>
  <g
     style="font-style:normal;font-variant:normal;font-weight:normal;font-stretch:normal;letter-spacing:normal;word-spacing:normal;text-anchor:start;fill:none;stroke:#000000;stroke-linecap:butt;stroke-linejoin:miter;stroke-miterlimit:10.43299961;stroke-opacity:1;stroke-dasharray:none;stroke-dashoffset:0"
     id="g5971"
     transform="matrix(6,0,0,-6,-1317.3847,4699.0437)"
     xml:space="preserve"
     stroke-miterlimit="10.433"
     font-style="normal"
     font-variant="normal"
     font-weight="normal"
     font-stretch="normal"
     font-size-adjust="none"
     letter-spacing="normal"
     word-spacing="normal"
     ns0:text="$\\pi$"
     ns0:preamble="">
<path
   style="fill:#000000;stroke-width:0"
   inkscape:connector-curvature="0"
   d="m 226.07,710.84 h 1.13 c -0.33,-1.48 -0.42,-1.9 -0.42,-2.57 0,-0.15 0,-0.42 0.08,-0.76 0.1,-0.43 0.21,-0.49 0.36,-0.49 0.2,0 0.41,0.18 0.41,0.37 0,0.06 0,0.08 -0.06,0.22 -0.29,0.72 -0.29,1.37 -0.29,1.65 0,0.52 0.07,1.06 0.18,1.58 h 1.14 c 0.13,0 0.48,0 0.48,0.34 0,0.23 -0.2,0.23 -0.4,0.23 h -3.33 c -0.22,0 -0.6,0 -1.04,-0.46 -0.35,-0.39 -0.61,-0.85 -0.61,-0.9 0,-0.01 0,-0.1 0.12,-0.1 0.08,0 0.1,0.04 0.16,0.12 0.49,0.77 1.07,0.77 1.27,0.77 h 0.56 c -0.32,-1.21 -0.85,-2.41 -1.27,-3.32 -0.08,-0.15 -0.08,-0.17 -0.08,-0.24 0,-0.19 0.16,-0.26 0.29,-0.26 0.3,0 0.38,0.27 0.5,0.64 0.14,0.46 0.14,0.48 0.26,0.98 z"
   id="path5973" />
</g>  <path
     style="font-style:normal;font-variant:normal;font-weight:normal;font-stretch:normal;letter-spacing:normal;word-spacing:normal;text-anchor:start;fill:#800000;stroke:#000000;stroke-width:0;stroke-linecap:butt;stroke-linejoin:miter;stroke-miterlimit:10.43299961000000000;stroke-opacity:1;stroke-dasharray:none;stroke-dashoffset:0"
     inkscape:connector-curvature="0"
     d="m 77.7048,183.8808 0.18,0.06 0.18,0.06 0.18,0.06 0.18,0 0.18,0.06 0.18,0 0.18,0.06 0.18,0 0.12,0.06 0.18,0 0.12,0.06 0.18,0 0.12,0 0.12,0.06 0.18,0 0.12,0 0.12,0 0.12,0 0.12,0.06 0.06,0 0.12,0 0.12,0 0.12,0 0.06,0 0.12,0 0.06,0 0.06,0 0.12,0 0.06,0 0.06,0 0.06,0 0.06,0 c 5.52,0 8.82,-3.72 8.82,-4.38 0,-0.42 -0.3,-0.54 -0.54,-0.54 -0.06,0 -0.18,0 -0.3,0.12 -1.02,0.36 -3.24,1.2 -6.36,1.2 -1.14,0 -3.36,-0.12 -6.06,-1.14 -0.42,-0.18 -0.54,-0.18 -0.54,-0.18 -0.54,0 -0.54,0.42 -0.54,1.08 v 12.3 c 0,0.72 0,1.26 0.66,1.26 0.36,0 0.42,-0.12 0.84,-0.6 1.8,-2.28 4.32,-2.64 5.82,-2.64 2.46,0 3.6,1.98 3.84,2.34 0.72,1.38 0.96,2.94 0.96,5.4 0,1.2 0,3.72 -1.26,5.52 -1.02,1.5 -2.82,2.52 -4.86,2.52 -2.7,0 -5.52,-1.5 -6.54,-4.26 1.56,0.12 2.34,-0.9 2.34,-2.04 0,-1.8 -1.5,-2.16 -2.1,-2.16 -0.06,0 -2.04,0 -2.04,2.28 0,3.78 3.42,7.5 8.4,7.5 5.4,0 10.08,-3.96 10.08,-9.24 0,-4.68 -3.6,-9 -8.82,-9 -1.8,0 -4.02,0.42 -5.82,2.04 z"
     id="path6251" />
  <path
     style="font-style:normal;font-variant:normal;font-weight:normal;font-stretch:normal;letter-spacing:normal;word-spacing:normal;text-anchor:start;fill:#000000;stroke:#000000;stroke-width:0;stroke-linecap:butt;stroke-linejoin:miter;stroke-miterlimit:10.43299961;stroke-opacity:1;stroke-dasharray:none;stroke-dashoffset:0"
     inkscape:connector-curvature="0"
     d="m 108.0048,192.0408 h 4.98 c -0.6,2.46 -1.5,6.3 -1.5,9.6 0,1.62 0.18,2.76 0.42,3.72 0.66,2.04 1.26,2.22 1.92,2.22 0.96,0 1.92,-0.84 1.92,-1.86 0,-0.36 -0.06,-0.54 -0.3,-0.9 -0.78,-1.56 -1.56,-3.96 -1.56,-7.38 0,-0.78 0,-2.46 0.6,-5.4 h 5.22 c 0.72,0 1.08,0 1.56,-0.36 0.54,-0.42 0.66,-1.08 0.66,-1.26 0,-1.2 -1.08,-1.2 -1.74,-1.2 h -15.78 c -1.74,0 -2.88,0.36 -4.74,2.1 -1.14,0.96 -2.76,3.18 -2.76,3.6 0,0.48 0.54,0.48 0.72,0.48 0.48,0 0.48,-0.06 0.78,-0.48 2.1,-2.88 4.68,-2.88 5.64,-2.88 h 2.52 c -1.32,4.56 -3.54,9.48 -4.8,12 -0.24,0.54 -0.66,1.44 -0.78,1.62 -0.06,0.12 -0.12,0.3 -0.12,0.6 0,0.66 0.48,1.32 1.44,1.32 1.68,0 2.16,-1.86 3.12,-5.64 z"
     id="path6253" />
  <line
     style="font-style:normal;font-variant:normal;font-weight:normal;font-stretch:normal;letter-spacing:normal;word-spacing:normal;text-anchor:start;fill:none;stroke:#000000;stroke-width:2.38800001;stroke-linecap:butt;stroke-linejoin:miter;stroke-miterlimit:10.43299961;stroke-opacity:1;stroke-dasharray:none;stroke-dashoffset:0"
     x1="71.224831"
     y1="215.74083"
     x2="124.50477"
     y2="215.74083"
     id="line6255" />
  <path
     style="font-style:normal;font-variant:normal;font-weight:normal;font-stretch:normal;letter-spacing:normal;word-spacing:normal;text-anchor:start;fill:#000000;stroke:#000000;stroke-width:0;stroke-linecap:butt;stroke-linejoin:miter;stroke-miterlimit:10.43299961;stroke-opacity:1;stroke-dasharray:none;stroke-dashoffset:0"
     inkscape:connector-curvature="0"
     d="m 92.2248,237.7008 0,-0.66 0,-0.66 0,-0.6 0.06,-0.6 0.06,-0.6 0.06,-0.6 0.06,-0.6 0.06,-0.54 0.12,-0.6 0.12,-0.54 0.18,-0.54 0.18,-0.54 0.12,-0.24 0.06,-0.24 0.12,-0.3 0.12,-0.24 0.12,-0.24 0.12,-0.24 0.18,-0.24 0.12,-0.24 c 1.44,-2.28 3.66,-3.78 6.36,-3.78 1.26,0 2.94,0.3 3.78,1.44 -1.08,0.06 -1.98,0.78 -1.98,1.98 0,1.08 0.72,1.98 1.98,1.98 1.26,0 2.04,-0.84 2.04,-2.04 0,-2.46 -1.8,-4.62 -5.88,-4.62 -6.06,0 -12.18,5.52 -12.18,14.52 0,10.8 5.1,14.04 9.66,14.04 5.1,0 9.54,-3.9 9.54,-9.36 0,-5.28 -4.2,-9.24 -9.12,-9.24 l -0.18,1.2 c 1.92,0 3.24,0.72 4.26,2.28 1.02,1.62 1.02,3.36 1.02,5.76 0,2.4 0,4.14 -1.14,5.76 -0.96,1.44 -2.34,2.28 -4.38,2.28 h 0 c -2.04,0 -3.72,-1.2 -4.56,-3.06 -0.66,-1.26 -0.96,-3.36 -0.96,-5.82 0,-4.08 2.4,-7.2 5.76,-7.2 l 0.18,-1.2 c -3.3,0 -5.16,2.22 -6.06,4.14 z"
     id="path6257" />
  <path
     id="path6545"
     d="m 113.7195,63.5421 v -1.5 h -4.62 v -18.6 c 0,-0.9 0,-1.14 -0.9,-1.14 -0.54,0 -0.72,0 -1.08,0.54 l -13.86,19.2 v 1.5 h 12.3 l 0.3,-1.5 h -11.04 l 11.04,-15.24 v 15.24 l -0.3,1.5 v 3.42 c 0,1.44 0,1.92 -3.42,1.92 h -1.08 v 1.5 c 2.04,-0.06 4.74,-0.18 6.24,-0.18 1.56,0 4.2,0.12 6.3,0.18 v -1.5 h -1.14 c -3.36,0 -3.36,-0.48 -3.36,-1.92 v -3.42 z"
     inkscape:connector-curvature="0"
     style="font-style:normal;font-variant:normal;font-weight:normal;font-stretch:normal;letter-spacing:normal;word-spacing:normal;text-anchor:start;fill:#800000;stroke:#000000;stroke-width:0;stroke-linecap:butt;stroke-linejoin:miter;stroke-miterlimit:10.43299961000000000;stroke-opacity:1;stroke-dasharray:none;stroke-dashoffset:0" />
  <path
     id="path6547"
     d="m 128.4195,55.2621 h 4.98 c -0.6,2.46 -1.5,6.3 -1.5,9.6 0,1.62 0.18,2.76 0.42,3.72 0.66,2.04 1.26,2.22 1.92,2.22 0.96,0 1.92,-0.84 1.92,-1.86 0,-0.36 -0.06,-0.54 -0.3,-0.9 -0.78,-1.56 -1.56,-3.96 -1.56,-7.38 0,-0.78 0,-2.46 0.6,-5.4 h 5.22 c 0.72,0 1.08,0 1.56,-0.36 0.54,-0.42 0.66,-1.08 0.66,-1.26 0,-1.2 -1.08,-1.2 -1.74,-1.2 h -15.78 c -1.74,0 -2.88,0.36 -4.74,2.1 -1.14,0.96 -2.76,3.18 -2.76,3.6 0,0.48 0.54,0.48 0.72,0.48 0.48,0 0.48,-0.06 0.78,-0.48 2.1,-2.88 4.68,-2.88 5.64,-2.88 h 2.52 c -1.32,4.56 -3.54,9.48 -4.8,12 -0.24,0.54 -0.66,1.44 -0.78,1.62 -0.06,0.12 -0.12,0.3 -0.12,0.6 0,0.66 0.48,1.32 1.44,1.32 1.68,0 2.16,-1.86 3.12,-5.64 z"
     inkscape:connector-curvature="0"
     style="font-style:normal;font-variant:normal;font-weight:normal;font-stretch:normal;letter-spacing:normal;word-spacing:normal;text-anchor:start;fill:#000000;stroke:#000000;stroke-width:0;stroke-linecap:butt;stroke-linejoin:miter;stroke-miterlimit:10.43299961;stroke-opacity:1;stroke-dasharray:none;stroke-dashoffset:0" />
  <line
     id="line6549"
     y2="78.962128"
     x2="144.91946"
     y1="78.962128"
     x1="91.639526"
     style="font-style:normal;font-variant:normal;font-weight:normal;font-stretch:normal;letter-spacing:normal;word-spacing:normal;text-anchor:start;fill:none;stroke:#000000;stroke-width:2.38800001;stroke-linecap:butt;stroke-linejoin:miter;stroke-miterlimit:10.43299961;stroke-opacity:1;stroke-dasharray:none;stroke-dashoffset:0" />
  <path
     id="path6551"
     d="m 112.6395,100.9221 0,-0.66 0,-0.66 0,-0.6 0.06,-0.6 0.06,-0.6 0.06,-0.6 0.06,-0.6 0.06,-0.54 0.12,-0.6 0.12,-0.54 0.18,-0.54 0.18,-0.54 0.12,-0.24 0.06,-0.24 0.12,-0.3 0.12,-0.24 0.12,-0.24 0.12,-0.24 0.18,-0.24 0.12,-0.24 c 1.44,-2.28 3.66,-3.78 6.36,-3.78 1.26,0 2.94,0.3 3.78,1.44 -1.08,0.06 -1.98,0.78 -1.98,1.98 0,1.08 0.72,1.98 1.98,1.98 1.26,0 2.04,-0.84 2.04,-2.04 0,-2.46 -1.8,-4.62 -5.88,-4.62 -6.06,0 -12.18,5.52 -12.18,14.52 0,10.8 5.1,14.04 9.66,14.04 5.1,0 9.54,-3.9 9.54,-9.36 0,-5.28 -4.2,-9.24 -9.12,-9.24 l -0.18,1.2 c 1.92,0 3.24,0.72 4.26,2.28 1.02,1.62 1.02,3.36 1.02,5.76 0,2.4 0,4.14 -1.14,5.76 -0.96,1.44 -2.34,2.28 -4.38,2.28 h 0 c -2.04,0 -3.72,-1.2 -4.56,-3.06 -0.66,-1.26 -0.96,-3.36 -0.96,-5.82 0,-4.08 2.4,-7.2 5.76,-7.2 l 0.18,-1.2 c -3.3,0 -5.16,2.22 -6.06,4.14 z"
     inkscape:connector-curvature="0"
     style="font-style:normal;font-variant:normal;font-weight:normal;font-stretch:normal;letter-spacing:normal;word-spacing:normal;text-anchor:start;fill:#000000;stroke:#000000;stroke-width:0;stroke-linecap:butt;stroke-linejoin:miter;stroke-miterlimit:10.43299961;stroke-opacity:1;stroke-dasharray:none;stroke-dashoffset:0" />
  <text
     sodipodi:linespacing="125%"
     id="text3282-69"
     y="90.160522"
     x="180.86494"
     style="font-size:36px;font-style:normal;font-weight:normal;text-align:center;line-height:125%;letter-spacing:0px;word-spacing:0px;text-anchor:middle;fill:#000000;fill-opacity:1;stroke:none;font-family:Sans"
     xml:space="preserve"><tspan
       y="90.160522"
       x="180.86494"
       id="tspan3284-33"
       sodipodi:role="line">or</tspan></text>
  <g
     ns0:preamble=""
     ns0:text="$\\frac{2\\pi}{3}$"
     word-spacing="normal"
     letter-spacing="normal"
     font-size-adjust="none"
     font-stretch="normal"
     font-weight="normal"
     font-variant="normal"
     font-style="normal"
     stroke-miterlimit="10.433"
     xml:space="preserve"
     transform="matrix(6,0,0,-6,-1139.7765,4335.6614)"
     id="g6858"
     style="font-style:normal;font-variant:normal;font-weight:normal;font-stretch:normal;letter-spacing:normal;word-spacing:normal;text-anchor:start;fill:none;stroke:#000000;stroke-linecap:butt;stroke-linejoin:miter;stroke-miterlimit:10.43299961;stroke-opacity:1;stroke-dasharray:none;stroke-dashoffset:0">
<path
   id="path6860"
   d="m 228.15,712.31 h -0.24 c -0.02,-0.15 -0.09,-0.56 -0.18,-0.63 -0.06,-0.04 -0.6,-0.04 -0.69,-0.04 h -1.28 c 0.73,0.65 0.97,0.84 1.39,1.17 0.51,0.41 1,0.84 1,1.5 0,0.84 -0.74,1.35 -1.64,1.35 -0.86,0 -1.44,-0.6 -1.44,-1.24 0,-0.35 0.3,-0.39 0.37,-0.39 0.16,0 0.36,0.12 0.36,0.37 0,0.13 -0.04,0.37 -0.41,0.37 0.22,0.49 0.69,0.64 1.02,0.64 0.7,0 1.06,-0.54 1.06,-1.1 0,-0.61 -0.43,-1.09 -0.65,-1.34 l -1.68,-1.65 c -0.07,-0.06 -0.07,-0.08 -0.07,-0.27 h 2.87 z"
   inkscape:connector-curvature="0"
   style="fill:#000000;stroke-width:0" />
<path
   id="path6862"
   d="m 230.76,713.57 h 0.83 c -0.1,-0.41 -0.25,-1.05 -0.25,-1.6 0,-0.27 0.03,-0.46 0.07,-0.62 0.11,-0.34 0.21,-0.37 0.32,-0.37 0.16,0 0.32,0.14 0.32,0.31 0,0.06 -0.01,0.09 -0.05,0.15 -0.13,0.26 -0.26,0.66 -0.26,1.23 0,0.13 0,0.41 0.1,0.9 h 0.87 c 0.12,0 0.18,0 0.26,0.06 0.09,0.07 0.11,0.18 0.11,0.21 0,0.2 -0.18,0.2 -0.29,0.2 h -2.63 c -0.29,0 -0.48,-0.06 -0.79,-0.35 -0.19,-0.16 -0.46,-0.53 -0.46,-0.6 0,-0.08 0.09,-0.08 0.12,-0.08 0.08,0 0.08,0.01 0.13,0.08 0.35,0.48 0.78,0.48 0.94,0.48 h 0.42 c -0.22,-0.76 -0.59,-1.58 -0.8,-2 -0.04,-0.09 -0.11,-0.24 -0.13,-0.27 -0.01,-0.02 -0.02,-0.05 -0.02,-0.1 0,-0.11 0.08,-0.22 0.24,-0.22 0.28,0 0.36,0.31 0.52,0.94 z"
   inkscape:connector-curvature="0"
   style="fill:#000000;stroke-width:0" />
<line
   id="line6864"
   y2="709.62"
   x2="233.50999"
   y1="709.62"
   x1="224.63"
   style="stroke-width:0.398" />
<path
   id="path6866"
   d="m 228.98,706.01 0.05,0 0.05,0 0.05,-0.01 0.05,-0.01 0.05,-0.01 0.04,-0.01 0.05,-0.01 0.04,-0.02 0.04,-0.02 0.04,-0.02 0.04,-0.02 0.04,-0.03 0.03,-0.02 0.04,-0.03 0.03,-0.03 0.03,-0.04 0.03,-0.03 0.03,-0.04 0.03,-0.04 0.02,-0.05 0.03,-0.04 0.02,-0.05 0.02,-0.05 0.02,-0.05 0.01,-0.05 0.02,-0.06 0.01,-0.06 0.01,-0.06 0.01,-0.06 0,-0.06 0.01,-0.07 0,-0.07 c 0,-0.86 -0.51,-1.12 -0.91,-1.12 -0.28,0 -0.89,0.08 -1.18,0.49 0.32,0.01 0.4,0.24 0.4,0.39 0,0.22 -0.17,0.38 -0.38,0.38 -0.2,0 -0.39,-0.12 -0.39,-0.4 0,-0.66 0.72,-1.08 1.56,-1.08 0.97,0 1.64,0.65 1.64,1.34 0,0.54 -0.44,1.09 -1.21,1.25 0.73,0.26 1,0.78 1,1.21 0,0.55 -0.64,0.96 -1.41,0.96 -0.77,0 -1.37,-0.38 -1.37,-0.93 0,-0.24 0.16,-0.37 0.37,-0.37 0.21,0 0.35,0.16 0.35,0.35 0,0.2 -0.14,0.35 -0.35,0.36 0.24,0.31 0.72,0.38 0.98,0.38 0.31,0 0.75,-0.15 0.75,-0.75 0,-0.3 -0.1,-0.61 -0.28,-0.83 -0.23,-0.26 -0.42,-0.28 -0.77,-0.3 -0.18,-0.01 -0.19,-0.01 -0.22,-0.02 -0.02,0 -0.07,-0.01 -0.07,-0.09 0,-0.1 0.06,-0.1 0.18,-0.1 z"
   inkscape:connector-curvature="0"
   style="fill:#000000;stroke-width:0" />
</g>  <path
     id="path7178"
     d="m 379.65908,22.7779 0.3,0 0.3,0 0.3,0.06 0.3,0.06 0.24,0.06 0.3,0.06 0.24,0.06 0.24,0.12 0.3,0.12 0.24,0.12 0.24,0.12 0.18,0.18 0.24,0.18 0.18,0.12 0.24,0.24 0.18,0.18 0.18,0.24 0.18,0.18 0.18,0.3 0.12,0.24 0.12,0.24 0.18,0.3 0.12,0.3 0.06,0.3 0.12,0.3 0.06,0.36 0.12,0.36 0.06,0.36 0,0.36 0.06,0.36 0,0.42 0,0.42 c 0,5.16 -3,6.72 -5.4,6.72 -1.68,0 -5.34,-0.48 -7.14,-2.94 1.98,-0.06 2.46,-1.44 2.46,-2.34 0,-1.32 -1.02,-2.28 -2.34,-2.28 -1.14,0 -2.34,0.72 -2.34,2.4 0,3.96 4.38,6.48 9.42,6.48 5.82,0 9.84,-3.84 9.84,-8.04 0,-3.24 -2.7,-6.54 -7.26,-7.5 4.38,-1.56 5.94,-4.68 5.94,-7.26 0,-3.3 -3.78,-5.7 -8.4,-5.7 -4.68,0 -8.22,2.22 -8.22,5.58 0,1.38 0.9,2.22 2.16,2.22 1.32,0 2.16,-1.02 2.16,-2.16 0,-1.2 -0.84,-2.1 -2.16,-2.16 1.5,-1.86 4.38,-2.28 5.88,-2.28 1.92,0 4.56,0.9 4.56,4.5 0,1.8 -0.6,3.72 -1.68,4.98 -1.38,1.62 -2.58,1.68 -4.68,1.8 -1.02,0.06 -1.08,0.06 -1.32,0.12 -0.06,0 -0.42,0.12 -0.42,0.54 0,0.6 0.42,0.6 1.08,0.6 z"
     inkscape:connector-curvature="0"
     style="font-style:normal;font-variant:normal;font-weight:normal;font-stretch:normal;letter-spacing:normal;word-spacing:normal;text-anchor:start;fill:#800000;stroke:#000000;stroke-width:0;stroke-linecap:butt;stroke-linejoin:miter;stroke-miterlimit:10.43299961000000000;stroke-opacity:1;stroke-dasharray:none;stroke-dashoffset:0" />
  <path
     id="path7180"
     d="m 405.03908,21.5779 h 4.98 c -0.6,2.46 -1.5,6.3 -1.5,9.6 0,1.62 0.18,2.76 0.42,3.72 0.66,2.04 1.26,2.22 1.92,2.22 0.96,0 1.92,-0.84 1.92,-1.86 0,-0.36 -0.06,-0.54 -0.3,-0.9 -0.78,-1.56 -1.56,-3.96 -1.56,-7.38 0,-0.78 0,-2.46 0.6,-5.4 h 5.22 c 0.72,0 1.08,0 1.56,-0.36 0.54,-0.42 0.66,-1.08 0.66,-1.26 0,-1.2 -1.08,-1.2 -1.74,-1.2 h -15.78 c -1.74,0 -2.88,0.36 -4.74,2.1 -1.14,0.96 -2.76,3.18 -2.76,3.6 0,0.48 0.54,0.48 0.72,0.48 0.48,0 0.48,-0.06 0.78,-0.48 2.1,-2.88 4.68,-2.88 5.64,-2.88 h 2.52 c -1.32,4.56 -3.54,9.48 -4.8,12 -0.24,0.54 -0.66,1.44 -0.78,1.62 -0.06,0.12 -0.12,0.3 -0.12,0.6 0,0.66 0.48,1.32 1.44,1.32 1.68,0 2.16,-1.86 3.12,-5.64 z"
     inkscape:connector-curvature="0"
     style="font-style:normal;font-variant:normal;font-weight:normal;font-stretch:normal;letter-spacing:normal;word-spacing:normal;text-anchor:start;fill:#000000;stroke:#000000;stroke-width:0;stroke-linecap:butt;stroke-linejoin:miter;stroke-miterlimit:10.43299961;stroke-opacity:1;stroke-dasharray:none;stroke-dashoffset:0" />
  <line
     id="line7182"
     y2="45.277927"
     x2="421.53903"
     y1="45.277927"
     x1="368.25909"
     style="font-style:normal;font-variant:normal;font-weight:normal;font-stretch:normal;letter-spacing:normal;word-spacing:normal;text-anchor:start;fill:none;stroke:#000000;stroke-width:2.38800001;stroke-linecap:butt;stroke-linejoin:miter;stroke-miterlimit:10.43299961;stroke-opacity:1;stroke-dasharray:none;stroke-dashoffset:0" />
  <path
     id="path7184"
     d="m 389.25908,67.2379 0,-0.66 0,-0.66 0,-0.6 0.06,-0.6 0.06,-0.6 0.06,-0.6 0.06,-0.6 0.06,-0.54 0.12,-0.6 0.12,-0.54 0.18,-0.54 0.18,-0.54 0.12,-0.24 0.06,-0.24 0.12,-0.3 0.12,-0.24 0.12,-0.24 0.12,-0.24 0.18,-0.24 0.12,-0.24 c 1.44,-2.28 3.66,-3.78 6.36,-3.78 1.26,0 2.94,0.3 3.78,1.44 -1.08,0.06 -1.98,0.78 -1.98,1.98 0,1.08 0.72,1.98 1.98,1.98 1.26,0 2.04,-0.84 2.04,-2.04 0,-2.46 -1.8,-4.62 -5.88,-4.62 -6.06,0 -12.18,5.52 -12.18,14.52 0,10.8 5.1,14.04 9.66,14.04 5.1,0 9.54,-3.9 9.54,-9.36 0,-5.28 -4.2,-9.24 -9.12,-9.24 l -0.18,1.2 c 1.92,0 3.24,0.72 4.26,2.28 1.02,1.62 1.02,3.36 1.02,5.76 0,2.4 0,4.14 -1.14,5.76 -0.96,1.44 -2.34,2.28 -4.38,2.28 h 0 c -2.04,0 -3.72,-1.2 -4.56,-3.06 -0.66,-1.26 -0.96,-3.36 -0.96,-5.82 0,-4.08 2.4,-7.2 5.76,-7.2 l 0.18,-1.2 c -3.3,0 -5.16,2.22 -6.06,4.14 z"
     inkscape:connector-curvature="0"
     style="font-style:normal;font-variant:normal;font-weight:normal;font-stretch:normal;letter-spacing:normal;word-spacing:normal;text-anchor:start;fill:#000000;stroke:#000000;stroke-width:0;stroke-linecap:butt;stroke-linejoin:miter;stroke-miterlimit:10.43299961;stroke-opacity:1;stroke-dasharray:none;stroke-dashoffset:0" />
  <text
     sodipodi:linespacing="125%"
     id="text3282-5"
     y="55.455475"
     x="446.25647"
     style="font-size:36px;font-style:normal;font-weight:normal;text-align:center;line-height:125%;letter-spacing:0px;word-spacing:0px;text-anchor:middle;fill:#000000;fill-opacity:1;stroke:none;font-family:Sans"
     xml:space="preserve"><tspan
       y="55.455475"
       x="446.25647"
       id="tspan3284-52"
       sodipodi:role="line">or</tspan></text>
  <g
     ns0:preamble=""
     ns0:text="$\\frac{\\pi}{2}$"
     word-spacing="normal"
     letter-spacing="normal"
     font-size-adjust="none"
     font-stretch="normal"
     font-weight="normal"
     font-variant="normal"
     font-style="normal"
     stroke-miterlimit="10.433"
     xml:space="preserve"
     transform="matrix(6,0,0,-6,-875.40575,4301.9771)"
     id="g7515"
     style="font-style:normal;font-variant:normal;font-weight:normal;font-stretch:normal;letter-spacing:normal;word-spacing:normal;text-anchor:start;fill:none;stroke:#000000;stroke-linecap:butt;stroke-linejoin:miter;stroke-miterlimit:10.43299961;stroke-opacity:1;stroke-dasharray:none;stroke-dashoffset:0">
<path
   id="path7517"
   d="m 226.79,713.57 h 0.83 c -0.1,-0.41 -0.25,-1.05 -0.25,-1.6 0,-0.27 0.03,-0.46 0.07,-0.62 0.11,-0.34 0.2,-0.37 0.32,-0.37 0.15,0 0.32,0.14 0.32,0.31 0,0.06 -0.01,0.09 -0.05,0.15 -0.14,0.26 -0.26,0.66 -0.26,1.23 0,0.13 0,0.41 0.1,0.9 h 0.87 c 0.12,0 0.18,0 0.25,0.06 0.1,0.07 0.12,0.18 0.12,0.21 0,0.2 -0.18,0.2 -0.3,0.2 h -2.62 c -0.29,0 -0.48,-0.06 -0.8,-0.35 -0.18,-0.16 -0.45,-0.53 -0.45,-0.6 0,-0.08 0.09,-0.08 0.12,-0.08 0.08,0 0.08,0.01 0.12,0.08 0.36,0.48 0.79,0.48 0.95,0.48 h 0.42 c -0.22,-0.76 -0.59,-1.58 -0.8,-2 -0.04,-0.09 -0.11,-0.24 -0.13,-0.27 -0.01,-0.02 -0.02,-0.05 -0.02,-0.1 0,-0.11 0.08,-0.22 0.24,-0.22 0.28,0 0.36,0.31 0.52,0.94 z"
   inkscape:connector-curvature="0"
   style="fill:#000000;stroke-width:0" />
<line
   id="line7519"
   y2="709.62"
   x2="229.53999"
   y1="709.62"
   x1="224.63"
   style="stroke-width:0.398" />
<path
   id="path7521"
   d="m 228.61,704.96 h -0.23 c -0.02,-0.16 -0.09,-0.57 -0.18,-0.64 -0.06,-0.04 -0.6,-0.04 -0.69,-0.04 h -1.28 c 0.73,0.65 0.97,0.84 1.39,1.17 0.51,0.41 0.99,0.84 0.99,1.5 0,0.84 -0.73,1.36 -1.63,1.36 -0.86,0 -1.44,-0.61 -1.44,-1.25 0,-0.35 0.3,-0.39 0.36,-0.39 0.17,0 0.37,0.12 0.37,0.37 0,0.13 -0.04,0.37 -0.41,0.37 0.22,0.49 0.69,0.65 1.02,0.65 0.7,0 1.06,-0.55 1.06,-1.11 0,-0.6 -0.43,-1.08 -0.66,-1.33 l -1.68,-1.66 c -0.06,-0.06 -0.06,-0.07 -0.06,-0.27 h 2.86 z"
   inkscape:connector-curvature="0"
   style="fill:#000000;stroke-width:0" />
</g></svg>
